<mxfile host="app.diagrams.net" modified="2021-11-23T12:44:01.980Z" agent="5.0 (X11; Linux x86_64) AppleWebKit/537.36 (KHTML, like Gecko) Chrome/96.0.4664.45 Safari/537.36" etag="Yu-AHbSZ4tpsFue189ho" version="15.8.4" type="github">
  <diagram id="lUMVtRx4P4k9-3xSC4ih" name="Page-1">
    <mxGraphModel dx="2067" dy="664" grid="1" gridSize="10" guides="1" tooltips="1" connect="1" arrows="1" fold="1" page="1" pageScale="1" pageWidth="850" pageHeight="1100" math="0" shadow="0">
      <root>
        <mxCell id="0" />
        <mxCell id="1" parent="0" />
        <mxCell id="uGtBdyk0oR556KzFv3Sy-1" value="&lt;font color=&quot;#ffffff&quot; style=&quot;font-size: 18px&quot;&gt;Camera&lt;/font&gt;" style="rounded=1;whiteSpace=wrap;html=1;fillColor=#000000;" parent="1" vertex="1">
          <mxGeometry x="380" y="520" width="120" height="60" as="geometry" />
        </mxCell>
        <mxCell id="uGtBdyk0oR556KzFv3Sy-2" value="" style="endArrow=none;html=1;exitX=0;exitY=0;exitDx=0;exitDy=0;dashed=1;" parent="1" source="uGtBdyk0oR556KzFv3Sy-1" edge="1">
          <mxGeometry width="50" height="50" relative="1" as="geometry">
            <mxPoint x="400" y="410" as="sourcePoint" />
            <mxPoint x="260" y="450" as="targetPoint" />
          </mxGeometry>
        </mxCell>
        <mxCell id="uGtBdyk0oR556KzFv3Sy-3" value="" style="endArrow=none;html=1;exitX=1;exitY=0;exitDx=0;exitDy=0;dashed=1;" parent="1" source="uGtBdyk0oR556KzFv3Sy-1" edge="1">
          <mxGeometry width="50" height="50" relative="1" as="geometry">
            <mxPoint x="390" y="530" as="sourcePoint" />
            <mxPoint x="620" y="450" as="targetPoint" />
          </mxGeometry>
        </mxCell>
        <mxCell id="uGtBdyk0oR556KzFv3Sy-4" value="View" style="text;html=1;strokeColor=none;fillColor=none;align=center;verticalAlign=middle;whiteSpace=wrap;rounded=0;" parent="1" vertex="1">
          <mxGeometry x="420" y="480" width="40" height="20" as="geometry" />
        </mxCell>
        <mxCell id="uGtBdyk0oR556KzFv3Sy-5" value="Main target person" style="shape=umlActor;verticalLabelPosition=bottom;verticalAlign=top;html=1;outlineConnect=0;rounded=1;fillColor=#000000;" parent="1" vertex="1">
          <mxGeometry x="335" y="755" width="30" height="60" as="geometry" />
        </mxCell>
        <mxCell id="h7BJYr1s7yI0YggUq6hs-6" value="Main target person" style="shape=umlActor;verticalLabelPosition=bottom;verticalAlign=top;html=1;outlineConnect=0;rounded=1;fillColor=#000000;" parent="1" vertex="1">
          <mxGeometry x="1025" y="865" width="30" height="60" as="geometry" />
        </mxCell>
        <mxCell id="h7BJYr1s7yI0YggUq6hs-7" value="" style="endArrow=classic;startArrow=classic;html=1;dashed=1;" parent="1" edge="1">
          <mxGeometry width="50" height="50" relative="1" as="geometry">
            <mxPoint x="1000" y="845" as="sourcePoint" />
            <mxPoint x="1080" y="845" as="targetPoint" />
          </mxGeometry>
        </mxCell>
        <mxCell id="h7BJYr1s7yI0YggUq6hs-8" value="Slowly swing it&#39;s body left and right" style="text;html=1;strokeColor=none;fillColor=none;align=center;verticalAlign=middle;whiteSpace=wrap;rounded=0;" parent="1" vertex="1">
          <mxGeometry x="960" y="795" width="160" height="20" as="geometry" />
        </mxCell>
        <mxCell id="h7BJYr1s7yI0YggUq6hs-11" value="&lt;font color=&quot;#ffffff&quot; style=&quot;font-size: 18px&quot;&gt;Camera&lt;/font&gt;" style="rounded=1;whiteSpace=wrap;html=1;fillColor=#000000;" parent="1" vertex="1">
          <mxGeometry x="290" y="1003" width="120" height="60" as="geometry" />
        </mxCell>
        <mxCell id="h7BJYr1s7yI0YggUq6hs-12" value="" style="endArrow=none;html=1;exitX=0;exitY=0;exitDx=0;exitDy=0;dashed=1;" parent="1" source="h7BJYr1s7yI0YggUq6hs-11" edge="1">
          <mxGeometry width="50" height="50" relative="1" as="geometry">
            <mxPoint x="310" y="893" as="sourcePoint" />
            <mxPoint x="220" y="910" as="targetPoint" />
          </mxGeometry>
        </mxCell>
        <mxCell id="h7BJYr1s7yI0YggUq6hs-13" value="" style="endArrow=none;html=1;exitX=1;exitY=0;exitDx=0;exitDy=0;dashed=1;" parent="1" source="h7BJYr1s7yI0YggUq6hs-11" edge="1">
          <mxGeometry width="50" height="50" relative="1" as="geometry">
            <mxPoint x="300" y="1013" as="sourcePoint" />
            <mxPoint x="490" y="910" as="targetPoint" />
          </mxGeometry>
        </mxCell>
        <mxCell id="h7BJYr1s7yI0YggUq6hs-14" value="View" style="text;html=1;strokeColor=none;fillColor=none;align=center;verticalAlign=middle;whiteSpace=wrap;rounded=0;" parent="1" vertex="1">
          <mxGeometry x="330" y="963" width="40" height="20" as="geometry" />
        </mxCell>
        <mxCell id="h7BJYr1s7yI0YggUq6hs-16" value="Distractor 01" style="shape=umlActor;verticalLabelPosition=bottom;verticalAlign=top;html=1;outlineConnect=0;rounded=1;fillColor=#000000;" parent="1" vertex="1">
          <mxGeometry x="160" y="764" width="30" height="60" as="geometry" />
        </mxCell>
        <mxCell id="h7BJYr1s7yI0YggUq6hs-17" value="Distractor 02" style="shape=umlActor;verticalLabelPosition=bottom;verticalAlign=top;html=1;outlineConnect=0;rounded=1;fillColor=#000000;" parent="1" vertex="1">
          <mxGeometry x="510" y="764" width="30" height="60" as="geometry" />
        </mxCell>
        <mxCell id="h7BJYr1s7yI0YggUq6hs-19" value="" style="endArrow=classic;startArrow=classic;html=1;" parent="1" edge="1">
          <mxGeometry width="50" height="50" relative="1" as="geometry">
            <mxPoint x="170" y="846" as="sourcePoint" />
            <mxPoint x="525" y="846" as="targetPoint" />
            <Array as="points">
              <mxPoint x="170" y="876" />
              <mxPoint x="525" y="876" />
            </Array>
          </mxGeometry>
        </mxCell>
        <mxCell id="h7BJYr1s7yI0YggUq6hs-21" value="Continue switch position with this trajectory synchronously" style="edgeLabel;html=1;align=center;verticalAlign=middle;resizable=0;points=[];" parent="h7BJYr1s7yI0YggUq6hs-19" vertex="1" connectable="0">
          <mxGeometry x="0.0252" y="-1" relative="1" as="geometry">
            <mxPoint as="offset" />
          </mxGeometry>
        </mxCell>
        <mxCell id="h7BJYr1s7yI0YggUq6hs-25" value="" style="endArrow=classic;html=1;" parent="1" edge="1">
          <mxGeometry width="50" height="50" relative="1" as="geometry">
            <mxPoint x="320" y="791" as="sourcePoint" />
            <mxPoint x="370" y="791" as="targetPoint" />
            <Array as="points">
              <mxPoint x="270" y="791" />
              <mxPoint x="270" y="721" />
              <mxPoint x="430" y="721" />
              <mxPoint x="430" y="791" />
            </Array>
          </mxGeometry>
        </mxCell>
        <mxCell id="h7BJYr1s7yI0YggUq6hs-26" value="Moving in this trajectory" style="text;html=1;strokeColor=none;fillColor=none;align=center;verticalAlign=middle;whiteSpace=wrap;rounded=0;" parent="1" vertex="1">
          <mxGeometry x="280" y="691" width="140" height="20" as="geometry" />
        </mxCell>
        <mxCell id="Ov13HfRZUzcDuJOu9g-e-5" value="" style="shape=image;verticalLabelPosition=bottom;labelBackgroundColor=#ffffff;verticalAlign=top;aspect=fixed;imageAspect=0;image=data:image/jpeg,/9j/4AAQSkZJRgABAQAAAQABAAD/4RIiRXhpZgAASUkqAAgAAAAKAAsAAgANAAAAhgAAAAABCQABAAAAWgEAAAEBCQABAAAARQEAABIBCQABAAAAAQAAABoBCQABAAAASAAAABsBCQABAAAASAAAACgBCQABAAAAAgAAADIBAgAUAAAAlAAAABMCCQABAAAAAQAAAGmHBAABAAAAqAAAAPYAAABnVGh1bWIgMy42LjEAADIwMjE6MDg6MjcgMTU6Mjk6MTYABgAAkAcABAAAADAyMjEBkQcABAAAAAECAwAAoAcABAAAADAxMDABoAkAAQAAAAEAAAACoAkAAQAAAFoBAAADoAkAAQAAAEUBAAAAAAAABgADAQMAAQAAAAYAAAAaAQkAAQAAAEgAAAAbAQkAAQAAAEgAAAAoAQkAAQAAAAIAAAABAgQAAQAAAEQBAAACAgQAAQAAANUQAAAAAAAA/9j/4AAQSkZJRgABAQAAAQABAAD/2wBDAAUDBAQEAwUEBAQFBQUGBwwIBwcHBw8LCwkMEQ8SEhEPERETFhwXExQaFRERGCEYGh0dHx8fExciJCIeJBweHx7/2wBDAQUFBQcGBw4ICA4eFBEUHh4eHh4eHh4eHh4eHh4eHh4eHh4eHh4eHh4eHh4eHh4eHh4eHh4eHh4eHh4eHh4eHh7/wAARCAB4AIADASIAAhEBAxEB/8QAHAAAAgMBAQEBAAAAAAAAAAAAAAYEBQcCAQMI/8QAQhAAAQMEAAUBBAUIBwkAAAAAAQIDBAAFBhEHEiExQRMIIlFhFBUycYEWFyMzQlKRsWJygpKhotMlNlNWY3N0lJX/xAAUAQEAAAAAAAAAAAAAAAAAAAAA/8QAFBEBAAAAAAAAAAAAAAAAAAAAAP/aAAwDAQACEQMRAD8A3uiiumht1APlQH+NABCz9lCz9ySa99J7/gu/3DSfwW4YWDMeGlpyPM13W6XG5KdmO6vUxDJCnlltPpB0IHKkhOgNdKdfzGcL/wDlt3/6cv8A1aCM6oMtrcdIbQ2kqWpXQJAGyT8NCqPGcyxLJnHG8fyS1XN1rZW3HkpUtI+PL9rXz1qmVfAnhIuKuOvBrWpLiVJUs85cPNvZ5yrm31773UzKOFeN3lmzfRH7jYJVlaLEKZanUtyEMlv0y2pS0q50lOuit9RvvQUF3mKhQHn2UsOvpbWpll2QGQ6pKSrl5yCATruelZ1hnEfJLxIxp25Yxbottvq0NIkMTXippbjC3kAocaTze62oHlUQCUneiN6O7wEwy4XAzMnuOT5OeTkQ1dLw4WkDY2AhrkSQdDYIIOuoq94qcNrTmuGtWNkM22RBeZk2x9DAUmO8z+q5k/tN690p2PdPTR1QVdFLuP3a9RrgcbzmNDtuS7cW0mOomNcGUnfrR1KJJAB0pBPOnuRog0xDqCR2A2T4A+J+FAUUszeIGERJTkJWUW6ROQoI+hQVmXJWo9kpaZClKPyA6edV87DmrdzzF3FpWPXyyz0W4XFCbk022pxguBsHlStRSd+FaPTtQNVFFFAUUUUBXbP65v8Arj+dcV2z+ub/AK4/nQfb2agE8GrO2nfI0/NZbBJPKhEx9KR18AAAfdTzkN1i2KwXC9zioRLfFdlPlIG+RtBUrW9ddA0iezSCOEFv35nXEj/3n6YeLsZc3hTl0NtSUrfsc1pJV2BUwsbNAo/ncu8lll228LMrcDqQtJkvwo6eQp2CSXjo9umvNfVviblKk7VwvuiD8PrmB/q18LWQq1w1Ad4zR/yCpFBYWjO79LWpM3CH7cdgI9S7RXQvZ/6ala189d/NMOAZNGzDEYORRYsiI3LC/wBC+UlbakOKbUklJIOlIPUHRHWkuQstx3XErKChtSgrW+UgE7/Cp/s4RXofBPGGpVskW6UuGHpLT4UFqecUVrcIUSRzqUV66a5uyewC44kYJas6gQY9wmXK3yLfLTLhzbc+GZDDgBSeVZB0ClRBGuopcRwRxOQEpv8Ac8oyRhIA+jXW9POsKI8qbSUpVvvpQI+VMvFjKJmF8PLzlEG1fWj1tj+v9GLhbBSCOZRUASAlO1HQPQVkt2t2d53dIj+aX62Q7BGK3GrbjciU19L5gOUvPkpUpIG+iQN/iaDcrFY7LYYaYVktMG2RkAJS1EjoZSAPkkCsj4lW/wCrvaLxy+KSkt3nHZdrBBVtLjDqZA346pUvXnofhVNiFpsfDfi3irdjadt1tyBuXa5LKpDjrSnwlLzB/SLJCtodSCP3tfCnX2jWUxMXs+XhKd41eY055XKSRGWSw/1HYBt4qPyRQdUUa10BBHxHY0UBRRRQFdNEB5BPQBQ/nXNep+0PvoJHs2HXCSEyQUuM3C5NOJI0UqE9/YNPOQ25N3sFwtKnVMpmxXY5cSNlAWgp2B51vdKvA6M1HwBPpAj1rpcnl7O/eVOfJq/zt/6NhN9k/S3IfpW6Qv6Q2rlUzptR5wfBHffyoMztnDrihGhMQXeIGOltpltoPjHHFOgIRy70ZHKSogEkjvvWh0qceGWXrbKHOKExQUNK/wBgQwD8f2aRuGOOs3HBbPdb/MvN3mT4MeSpVxuEpa2SppHMlPM50SVbV4+18NUyKxKwFJCIchlevdcZnyEOIPxSoObSR4I7UEm88Kc3vNnlWe58S4jkGaypiSWsbQ0+ptXRQStL3KklOxsJ89q15htpllDLSUpQhISlI8ADQFYj+R8RKR6WRZo0sKCg4nKJpUP7zhT/ABBrjF5Vxx3jJi9jayXJbrGu8SeZTFxuQlJQG0IU24EkBSfeC08w6bUAe9BsWV2lq/YxdbI/r0rhCeir325XEFJ/nWScN1Or4eY2X3fWeFqjJdc3vmWGkhR/iDW2nqNVh/DybDlWB6JCQ6hFruM22qS4SSFMyHE75j9rY5Tv5mgquMKBDs1oy0BXPi16iXZXKN7YS4EPj7vTWo78ctbnk1qjZBjFyskg7jXKG7EcI/ccQUH/AANZ9MiRbhEegTmUPxJLamX21jaVtqHKoEfAgmrD2c5siVwgs8SbIcfm2ovWuSXVbWFxnls+8fJ5UJO/mKBN4U3CVc+G9glTkrTMTDTHk8/cusksrP4qbJ/Gmes8VH4gcOrbKbm4vCcxiJf3VJuBuaC63bn5auU+kBsrSXdklX2e43WiKBSopPcHRoPKKKKAo3o7+HWig9jQTOAU2TIxS6wZKGkm25DcoiFIJ0tAkKWCd+f0mj91fH2nyBwKydCpC47TjDTbziTrlaU+2lwn5cpVvxre6qeCOTY5bo+Wwp9/tMSUjKbgpbD81tDiQpYKSUlQIB8U5ucSuGpCm3M/xIjspKrxH/gffoEJvKMVTE9SJfbe7Ea02hbDnqJ0NAAcgO+mu1QpOcWtpHqItOWSWjy8jkfGpq0LCiNFKvS0R1p3HF/hMgApzvGgnwRMRr8DXX55eFIH+/8AjoH/AJqaBJOZQQdfUOZff+S0/wD0quOFNm+tuId1zx+3XKK0i3R7ZbjOhuxHNBTrkj9G4AopKlNdSNEo6b10sDxuwqU+8zjzWQZR6Ky0tyx2aRLZDgSFcnqpT6fNoj9rpvrTLgmUzcnZluTMRyDHPQWPTTdWm0F9Ct6UnkWrR6dQdEbHegMsz7CMVcUxkmW2S1PhKVehKmoQ7yq6A8hPNo9euvFYnwTvkS/flrPhTW5UV7LJz0ZbQIaWy5yqQtG+pCtKJJ8g60KfeM3Di5ZXkNsvFjgYy7IbiuxZb13MjYRzJU0UJZIK9Hn2FKGgrp3NI+U4TlGJP4szMzyQ3b7pdU2+U3ZYDUH01KjuFkhxfquK99CUaUrXvDoKB6kiQYzohpaXJKFBlLqiEFevdCiOoTvWyPFR/ZcZnSsLuOWzX4SV5LclzlwobSkNRHUJTHdTtRJUorZJJ7b7d6WOGV8uj8i74vfWpKrtYXwlyW4sOJlsOlS47nMAPeLegoEA7G6vfZ1+kWC/5ng815LqWbj9d29ZUOZcWYpRI1/QdQ4k/fvzQPXGGzu3/hXlVmYaU7Il2mS2whKQVFz01FGt+eYDXzpAwG6rvmDWK8uvJedm25h5xxI0FLKBzHXg829jwdjxW0nt2r88cNfXs2V5zgz6VIasl5VIt6Cjl5YcvmebA13AUXAD+HjQB5ooooCiiiggSrJZJS1LlWO0SFqJKlvW9lxRJOySpSST1+dSGbdCShLTFtiBCEgJQ3FQAkDsAAOgr70mZZBtt/4qYFi95ZU7b5f1jJWlMpxglxplv09FCknYK9gg7B++geD9JKUtkPcqBpKdHSR8h4rgB1ZKUpcWQPsgEkfhWSrh8K79PuKbRw84k5KmFcHYT5Xe3UR232+i/wBdLBHLsDqPNMPCrD+DuR3m5WNnhfKtdztrLbsp2U+H+ZDpJRuQy8sFR948pO/dJoJsa4X57FMtGJR7q5dImbIbcRB5QscrMdR5wSNtK0kK1s8qj8DW8AdO2qqsUxqwYraU2nHLRDtcFKiv0YzQQkqOgVH4k6GyevSrc0HlJfG2x3C+8NrmzZmw5d4ZauNuT5VIjOpebSPmoo5f7VOlBoPzBZ8wxm6cTbPfcdniTEyOAqBM9JpfI3JbAfjhxRASHAgvt8uyrsNeQ5cJYce3cecsM1UuRMudrjy7dIeUtSW44WUvxkb9wBDnpr0Ouneu+9P3FHB42aYM9jzMr6qkIdak2+Yy0CYchpYW24lPboRojpsEjzVVj+E5Om/2e65BfrS6i3beLEC3uNl18tKbUS4t1Wm/fJ5QkdQnr0oNErAOIjP5Le0tbLotQELM7R9XnauqZcYlaD18KQQnQ8n51v8AWOe1haQ7g9oypKCpWL32HdHeUe8WA6EOgfDooKPyRQWlFeqACiAdjZ0fjXlAUUUUBSxl0mXaMqxPJImNXO/i2yJgfYt6G1PJS6wEIUPUUka5h160z0UCK9cWsyui3717OVvS0ApYl3WZFadcWdEjlCCo9T3J13IJ7UwYBll0x7JLBiD3DvGcVsd1kvsRfqy6hwodSyt7q2GUJJVya3vZJHerrQqhzKxSL2izvwZUeLPtF2j3OK7IZU63ztcwKVJSQSFJUodCNbB8UDTxSyzKbJlFgsWNMWFS7pGmPrcua3gE+h6XRIb6nYd/y1UpyXiqW9qVgiVfu8k0/wCOqospseWZHfrNe5eW2uPNtC5CoqmcdC0oS83yLTpcg83TWj06gbFcqsGZrnOuL4lSkxikBDTFggtlJHnakr70Ey48Qc6sWRYyvJZ+JR7NcLu3bpIhxpBc2424UK53FAIHMhI+yd83jVbFdLnbrTCVNus+LAjI+09JeS0hP3qUQKxOVhyrgYa7xluUznYb4kR1tSmYfpOhKk8yQw0kg8q1J7noTU6ZieNzpzE642lF0lR0lDL10ecnLQDrevXUsA9O4ANBOuPHOyT3zB4e2ifms0o5g7E0xBb/AO5Jc0lP3AKO+mqp85zfio1hF2vUaDYrO/CaEtEOK6ubIW22pK3G/UUlLYJbCx0Sr5UxoSlDaW0JCW0DSUJGkpHyA6CvnMcLUN90ISsoaWvlV2VpJOj8j2oNKtE+LdbVEucF5L0SYwiQw4k7C21pCkkfIgio2VWeLkOM3SwThuLcojsR4f0XEFJ/nSx7P7SGeCOFttvoeH1JFUSk9AVNhRT38b1+FPJ7UGAcGL1KvfDu3KuKlm62/ntlyCz7wkxz6ayfmQEq/tU40k2IGwcceIGKuthKLg8zkMNQAHOh1CW3R+DiR/E07UBRRRQFFFFAUUUUBRRRQFFFFAUEAgggEHuD5oooKXgZChYfxCyDCbUHY9nkW2NdoENTyltsLLrrUj0+begSGjyg6HTp1raR2rBb7MGM8UsMy9xOoTjj1guDm9BpuUUKZWo/uh5tKevT9IPNb0D8jQY77RsP6nnYrxFZUW/qe4Jg3Iga9SDLUltfMddkOemvroDR86q0IKSUnuDo1xxT4gcLZ1lvGFXm+Jub02O7DkW+0tLmygVDRHI0lXKsbBHNrRFL3DGRfZOA2ZzJYMiFd0xg1JbkABwlBKUrUAToqSEqI8FRoGIqAIB3s17RRQFFFFAUUUUBRRRQFFFFAUUUUEDIrRBv9hnWS5tF2FOYUw8kHR5SO4Pgg6IPggGl1PDbG3o0di8P36/pYQEpF2vcqQgka6lsrCN9B2Tr5UUUDLZLXbbHbW7bZoEa3QmxpDEZsNoG+/Qdz8z1NTKKKD//2QD/2wBDAAUDBAQEAwUEBAQFBQUGBwwIBwcHBw8LCwkMEQ8SEhEPERETFhwXExQaFRERGCEYGh0dHx8fExciJCIeJBweHx7/2wBDAQUFBQcGBw4ICA4eFBEUHh4eHh4eHh4eHh4eHh4eHh4eHh4eHh4eHh4eHh4eHh4eHh4eHh4eHh4eHh4eHh4eHh7/wAARCAFFAVoDASIAAhEBAxEB/8QAHQABAAIDAQEBAQAAAAAAAAAAAAcIAQUGBAMCCf/EAFwQAAEDAwMDAgEECQwNCAsAAAECAwQABREGBxIIEyEiMRQVI0FRCRYXGDI3QnXTVFZXYZOUlaWztNLUJDM0NVVxdoGEkaGy0SU4UlhzpLHwJkNGd4KDkpaixOH/xAAUAQEAAAAAAAAAAAAAAAAAAAAA/8QAFBEBAAAAAAAAAAAAAAAAAAAAAP/aAAwDAQACEQMRAD8AnulKUClKUClKUClKUClKUClKUClKUClKUClKUClRxvxq3W2idD3K+WfSYl25tlSVXlFyZSmCtwoaaUplaStaw6s5QElPHtnkeaktxHofUPUveNP2bWNmmWvU1und/wDsJ5qMzw4LU1874aV5UCU8Fn8H1Y9iFo6VU7Ve6++e3so3jU1o0+mJqB9z4JlUhMphlyMEMvoa7MhSm8K480LV4XywAedWxoFKUoFKUoFKUoFKUoFKUoFKUoFKUoFKUoFKUoFKUoFKUoFKUoFKUoFKVXvrkv3wWgrNp5tyU27c55eX2zhtxlhPqQvzk+t1pQGCMoz4IGQsJWhu2tdG2i4O2+66tsECa1juR5NxZacRkBQylSgRkEHyPYg1GmjukPbbU2krRqSNqLVrEe6wmZrLbjkcrQ26gLSFYbxywoZxkZz5NdLY+jbbK3S1Py516u6FNlAYmPBKEnIPIdntqz4I8kjyfHtgN390fbz9fulv4XY/p0+6Pt5+vzS38Lsf06x96ftB/gH/AL5K/TU+9P2g/wAAf98l/pqDP3R9vP1+aW/hdj+nXOTN/NpIst6K7rBpTjLim1FqFIcQSDg8VpbKVD6ikkH3BIrpGulDZwOAu6eUtH0hM6Ukn/OXjXQ2Lp42hs0RcWHo63utqcLhMxpMteSAMBbwUoDwPAOM58eTQRr98HtB+u/+LZX6Ko319u/rHWu5Nm0nsVd2pplRFqIERtpbz4Di1pKpaQkBLbYUMYzyV5JwBaL7h21n6ybB/BUb9HWn0108aB03u1H3IsqrlBnx+XagMFhuCjkwWFYbS0CMpUVeFfhHP7VBXm33Tqo2/wDgY+o9CT9UQ3eCEIRHTNeQ21gLHdiFRStQUPW8FkkZGcKzLuye4kfczRy9QM2t22OMy1xH463Q4AtISoFKwByBStPukYOR9AJsN9NUwRsFv9tui+/cv1Pa37O9NU7EtypCHJTrfPihRD7KWUudspKyFJB4/ThIoLA1z+utWQNH2lNyuMS4PsqcQ1yjsfNIUtxDaS6+spZYTlY9TriAcHBOK4L7l3Vj+ybo39xH9TrkdP8ARxrq8aiZf3D11AXb28qWuC+9Lkucne4tCS8hIb5FbqufrwtWShXI0G23b3itETZbV+kbtqPROortdocddpYgMOPYS6UJeS+G1vR2n2Sla0FMhfqShWB6eXo2S2X1FadjoMtzU+sJcfUgj3NFr0iqDEfih1sLDipMopUrKEsApQpGDyGFpJVXe6N6R9pNO3xu6SGrzqAtYU3Fu0ptccLCkqCihttHP8HHFZUghRBSfGJ4gRIsCCxBgxmYsSM0llhhlsIbaQkYSlKR4SkAAADwAKCl3V9py0aZ6fdO6b0/YuzadO6kXbY06cH0zVlTC3HVAOsICkOul1SlNKLR7TRTnPFqYNudf6X1/b5c3TNw+JTEfUy82tBQ4jyQhZSfIQsDkk/T5BwpKkjuOoPb37p+1V20my7Djz3e2/AkymeaWX21hQIPujkkKbK05IS4rwryk1L2H19ZtqpF10LuTCc0ld7UO0tSLc2pM09xSwX1ttKfW6kOntrDhZU0RhIISpwLS0rTaN1Tp/WNkTedNXNq4QVOKa7iApJStPulSVAKSfIOFAeCD7EE7mgUpSgUpSgUpSgUpSgUpSgUpSgUpSgUpSgUpSgUpSgUpSgUpSgVX/qltMO/bm7Q2K4N9yHcbyuJIRkjk249EQoZBBHgn2INWAqAup+6QLHuns9e7o/8PAt97VKlO8FK7bTb8Ra1YSCThIJwASfoFBb/AE/aYNhsFusdsaLMG3RWokZsqKihptAQgZPk4AHk+a91KUClKUClKUClKUCsEVmlBilDSgxWaUoFRlvnspo3dm1q+WY3wl8ZjKZgXdgHuxvVyAUnIDqAQfQr2Cl8Sgq5VJtKCmGmUbibDa5Z03uPcpF00FcXU2+036VNcXHh9tslpKUFShHCgQhSFBIHDKVlDSiZ7hyY8yIzMhvtSIz6EuMvNLCkOIUMpUlQ8EEEEEfRUgaqsFm1Tp6bp/UFuZuNrnNdqRHdB4rGcggjBSoEAhQIIIBBBANUY0rd1dPG/F90JfJV3jaKlKU7HduDIKsccsyUhoL5hXEtEo48vBWlKm+2gLWUrmn9wtv2VhC9e6TJIz6L3GWP9YXitZfd3tsrNERKma3srralhsCHIEteSCfKGeSgPH4RGPYZ8ig7ilV11Z1LTrnJOm9n9NSrzeJSnmkvybZ8QrilCsOxmUkqUrAK8rTgBPqQrJ4/aFtV1PbqWW3u601gxpu1uZaciOBMWQqK6lBWpbEVtKV+CR2nlJUCFAhHIkhY9uCv5NkXOS/GhW+M0t16VKdDbTaEDKlKUfZIGSVHwMHz4qG9xuoza3SsRyPZJkvWN4Q4ttTUDLERBQpKVcn1oIUkgrKVNpWFcfyQQa8umeiPS0f4j7Zdb3m5cuPw/wAnxm4fb9+XLn3uWfTjHHGD75GJy2y2b2427jxftc0zCE+N5F0lNh+apZbDa191QyjkkHKUcUepWEjJoKx6r3b31h2u86pa2mRp7TVs7HdN8jvB1vuqDacKUpku5cP5DfpCk8v+kZG6dNdzNwtuvlm5/wB8mZ78eVxaCG+XLuIDYBJ4pbcbTlXklJzk+o9V1uMuHp0v09iW/FfguMLQpoI5KDriY7iCopKkpU2+4k8CkqBKSShS0qhzoZkx1bY3iGmQ0ZLV5W440FgrQhbDISop9wCULAJ9+KvqNBYClKUClKUClKUClKUClKUClKUClKUClKUCoF65PxTWv8+s/wAhIqeqgTrl/FNa/wA+s/yEiguPGdS/HafQCEuICwD74IzX0ry2j+9MP/sEf7or1UClKUCvHJudvjhZdmMgoOFJCsqBzjGB5qvfXPqPUtrsGkrBo/UNztd+vl5S3FagSVxnHkpQpCgXUlICeb7I4qUBnB+gkcd9x3dP/rGaz/dJP9aoLbfKNv8A1fG/dU/8az8o2/8AV0X91T/xqnNw6dbzqO4Ql673c1HqaHF7nbafSsuI5AZ7a3XXAjJSjOEnITjx4I+v3qm3n+GdU/vlj9DQXGZfZfQVsvNupBwVIUCAa+uap2x0rbZJR89c9XrVnwUToyRj/EY5r9/er7Wfq/Wf8JRv6tQW5kS4rC+D8llpRGQFuBJx9fmvvVRmelXaAtgu3fXSV/SETIqgP8/YH/hW60p087UaVuLlxhMXe+OONFkx78iLJjpBIPNKQ0MLHEAHPspX10Fn6x/jqCPucbefrD0t/BDH9GuS6Do0/Tt83U2/cuPxsDT17Q2yrsJb5u8n2XHceSOaY7XpKiBx8e5JC0tKUoFRZvdshpfde7WO536bc23bQ6kCOiQr4aQyXUKdbU3kcVLQlSe42UK9SSSsISkSnSgr1pvo+2gtU5cicnUF+bU0UCPPuAQ2lWQeYLCG1cvBHlRGFHxnBG/tHTBsnbbmZ6NH/EqTJRIZalTn3WmeIQOHArwtBKSohznkrUD6cJEzVkUGq05p6waagrg6dsdss0RxwurYgREMNqWQAVFKAAVYSkZ98AfVW0rNYxQKUpQcL1AxIs3YzXTMyMxJbTp+a8lDrYWAttlS0KwfykrSlQPuCkEeQKrH0K3iO9oK/afQysSYV0ExxwpASpD7SEJSDnJIMdZwQAOQ8nJxdaqT7LQLhpPqu3M0iIjNttyzImtwmUNhtLfxCFxSnh+CkMyDhIIwFYIBTgBYmlKUClKUClKUClKUClKUClKUClKUClKUCoE65fxS2v8APrP8hIqe6gTrl/FLa/z6z/ISKC3Gl1KXYoxUoqOFDJOfAUQP9lbOtXpT+8Mb/wCP/fNbSgUpSgq51q/jZ2O/Prv8vCqU6jnrPtc57X2zF6bY5QImpkxX3eafQ687HU2njnJylh05AwOPnGRmRqBSlKBSlKBSlKDy3e4Q7RaZl1uD3ZhwmFyJDnEq4NoSVKVgDJwAfABJqIOhu0awXrnU+vWNOs2PQGq2pEmGwy9HU2h5uWQ00lKcOJS2lUhA9KUkD2/BqR90Izs3bTVMNlTKXH7NLaQp55DTYUplYBUtZCUJ8+VKIAGSSBXL/Y77zJuO0Nxt0q+fE/JVyUxGt3zQ+DYWO6HMJSHD3HHHvUtSh83hOOKshZis0pQKUrhd9NeS9tNt52tI9kZvDcBxkSIzk0xlcHHA2FIUG15UFLR4IAxyOcgAh3Vclu7rB3Qe39w1SzbWbk5FdjtIjPTkQ21l6Q2yOTywUtgdzkVK8ADyQPIqzH3f6ptf6Sh3bSWn9P22FIdUtqdASwHHQgrQpBTKeWAnkD+SD6Rg4znjJuy2+W5E5u4bh6mDQTMWe3cbgqSphDhSXFsNNcmkJPsEJUgegDCQAaDtbf1Eb7a3u17sm3dl0teI8eQ5EYuzEFyMoJUHS1I4yJBS3yS0pQDgKQrilWSoBWvtyOstu9ypi72uOqc8wiS4/PtrzDITgBSGQVhtIByrso9WDkKIqdNA6Qseh9Mx9P6fi9iKz6lrUcuPuHHJxxWByWcDz7AAAAJAA3MyNHmRHocuO1IjPtqaeZdQFIcQoYUlST4IIJBB980EUdNe6evE793/AG23YvJuN5kRW0W5xvglgKZC3uKG2m0oHcadLncVxVhpKVeeKU2rqmG/vw2neojaXWHys7bVO3BuJMkKkBlpqK3IbKypXjCSiQ6leTgp8HAzm59AqnHUDZ3NE9aGjNbNw35MXU5ajqU4+gASOHwawgAcglDbkdeFD1FSgFf9G49Vl+yD6Zmy9urHrm1uTGpumLiCXWX0thhl8oT3foUVh5uOElByOaiQcZSEl0rV6Pu/2waSs9++H+G+UoDEzs8+fb7jaV8eWBnHLGcD29q2lApSlApSlApSlApSlApSlApSlApSlAqBOuX8Utr/AD6z/ISKnuoE65fxS2v8+s/yEigt9Y20NWeIlAwC0lX+cjJ/2k17a8to/vTD/wCwR/uivVQKUpQQf1ff3p22/wDeFa/916ugrg+vm8SLDtxpK8Q2kOSYGrYkxnupJbK2mX1JCsEHBP0AjIBrwTt8tuotntU1N7ZkyrohosQGX2S+2VlHpeUVhpgp5jkXVpA4q8niaCS6Vxl+3Z2us1sRcXtf2GUyuSuNwhPmQ6FoUpJJaQkr4EoVhzjwUOJCiFJzw986nNsrdLQxEVerw2psKL8OEEoSckcSHlNqz4B8AjyPPuAE10qBPvrNvP8AA2qf3sx+mrP31e3nv8jap/ezH6agnqlQfpXqY2ratkSxx7XPtUWBEZix3bi24EpZb4NpSCyp5RWlvyApOFcMKUknlW/++D2g/Xd/Fsr9FQb7e+5W63bTao+UZ8WH8VaZcaP33kt955TDnFtOSOSjg4SMk4roenbY6y7X6btrzqpDmqFNcrpJi3CS3HkuHnxSpjudpwNpcKEqUj6OYCVHxXDeHVemN6twdutBaTul5uVuk3TN3ENlxtAbWtCeYStPlxpoSFlZQUoSvOT6wL3ISlCAhCQlKRgADAA+qg/VKUoFcZvLoWBr/b2+2B6HCcny7a9GgyJBUjsukocbytI5hHeZYWoDIV205CsYrs6xQU16LdQPydsfkWU1c3kxbm+zEcRbHlRmWihDpQqQlvtJVzW4cLXy9SQPdIqfKrZ08wVaR6ltyNERba/brc0qQ5HYdcfCkMtSQI+EqVxWktPAhawpWCClQC1c7J0ClKUFeuum3Q3NvbHdVs5mR7sI7TnI+lt1lxSxjODktNnOPHHxjJzY7po1RK1jsRpK/Tg8Za4Xwz7jz5ececYWphTqlkZKllorOckFWMn3MP8AVfplepNmLkthDq5NocRc2kIWlIIbBS4VcvcBpbqsDBJSMZ9j0/QNfflfp6i2/wCF7PyLcpUHn3OXe5KEjnjA4/3Rxxk/g5z5wAn+uS3i0g3r3a/UWkVoYU7cYK0Ri84tDaJCfWwtRR6uKXUoUcA5CcEEeD1uKUFPOjbUEqRoe5aJudvehXDS8xTLjbrJbUlLq3FcFhRyHEuJeBBCcDiPJzU6VANoY+0Trh1bp/F3TB1O05NjB3w2864kSlOfkhSEqEptKgFEHKc55Gp+oFKUoFKUoFKUoFKUoFKUoFKUoFKUoFQL1yfimtf59Z/kJFT1UUdW0aO/sLfnX2GnXI7kV1hS0AlpZkNoKkk+x4qUnI+hRHsTQWY05JjzNPW2ZDkNSIz8Rpxl5pYWhxCkApUlQ8EEEEEe9e+uM2J/EhoP/Ju3fzZuuzoFKUoNJrfS9i1ppmXpnU0H4+1TOHfj95bfPgtK0+pBChhSUnwR7Y9qjP713Yr9Y38bTf01SnqTUNg03CRO1HfLZZojjoZQ/PlojtqWQSEhSyAVYSo498A/VXP/AHV9rf2S9Gfw7G/p0HJQembY6FOjzGdCMqdYdS6hL9wlPNkpOQFIW6UrT48pUCCPBBFSBpzRGi9NTlztOaQ0/ZpbjRZW/AtrMdxTZIJQVISCU5Sk49sgfVUdffRbE/r5/imb+hp99FsT+vr+KZv6GgmWlQ199HsT+vn+KZv6GvtA6mdjps5iGzrtlLj7qWkKet8plsFRABUtbQShPnypRAA8kgUHfai0NonUc8XDUOj9PXiYlsNCROtrL7gQCSE8lpJwCT4/bNaZ/Z7ah5fJe2+kgcY9FoZQP9QTivv91naz9krRn8Oxv6dPusbWfslaM/h2N/ToPVp7bnb/AE9cGLjY9Eacts6Py7MqNbGW3m+QKVcXAnkMgke/sSK6oYrS6Z1bpbVHxH2s6ls17+G4/EfJ85qR2uWePLgo8c8VYz74P1Vuc0AmlYpQZpSlBWK62L5I63r/AHD4vvfLWkG53Dt8ezxeYj8M5PL+5+WcD8LGPGTJ1cXvXHFu6nduL3AmOh2+2u5Wic36FNqYjJ76APGUq7jnkg/kJHj1Z7SgUpSg+UyNHmRHocyO1IjPtqbeZdQFocQoYUlQPgggkEH66g3oNl/a9uNuJtc9cJ8r4R/4mMtPoY/sV8svL4cjwW5zYyADlKME+lOZ3qum4d2G0fVppvcWS5MRY74yGLmsSCEFIQGHcoQkqUhtJjvcCk8lJ8HOOIXbrBr42+XFnwY86DJZlRJLSXmH2XAtt1CgClSVDIUkgggjwQa+5oKddeDqdG7tbb7jQ1y1zkIdZeYRI7SXGYzqF8AoJynmJLqFE5BTgY98zrUa/ZG/xI2b/KRj+bSakqgUpSgUpSgUpSgUpSgUpSgUpSgUpSgVF3Vd+IHUv+i/zpmpRqLeq/8AEDqX/Rf52zQWP0nZIumtK2jTkFx5yJaoLMJhbygXFIaQEJKiAAVYSM4AGfoFbOlKBSlKCsn2Qe3TbjtSh5l9CY9rmxpr7a1qHJJLjA4gDBVyeT748A+fYGNdPbOaSuzujNQo28fetD1lauFzjxLkoMznXmSVM8nJIdZU3hKm+IUlxTiUOLaSFOCUuvq6xrdtLLhvodU5dHIsRgoAISsPF4lWT4HFlQ8Z8keMZI9ewU+RcdmNJyJVvdgOItrTAaczlSGh20OeQPC0oCx9GFjBPuQ7ilKUCvNdYEO62uVa7jHEiFMZXHkMlSkhxtYKVJykhQyCRkEH6iK9NKCLfvfNoP1o/wAZSv0te237B7JocQmZoRLjQzyUm5zeZ8HH/rwP/wCVItKCEX+mLbSfHjypIvlqnuRGvi4truCTCakBsBzs99tx0tlYKhzWT5+j2Hi+9U28/wAM6p/fTH6Gp7pQV+2k0u9s/wBXem9HaZ1BcnbDqa0OSZkaSUKKwhqVxSsgBKilxgrSsJSUhZR5BUVXQqh+4T6Y/WBoe8W3XLVwmSb/AA4ZgwpC1qtcZLjLK2XFg8UlxapfJkeyTlX9txV8KBSlKCEuoKzabtmvtt9dSkJiXFF7cs3ebZHzyZUSRwSshJUrDqUhJzhPdcJ98jfVwH2QO4TLTtPpu6297szIWq4siO5xCuDiGJKkqwQQcEA4IIrotAaiVqrSUK+OWqXaX3i41Igy04djvNOKadbV7HwtCh5AOMZAPgBvaUpQKjjqXsP2wbKaiYQ3FU/DYE9lb6c9vsqDiyk4JCy2HEjHvywSATUj14NSWqPftO3KxzFuojXGI7EeU0QFpQ4goUUkggHB8ZB/xUH16P7pPvHTfo6XcX+883GdipVwSnDTD7jLSfSAPS22hOfc4yckk1LVVe+x4XyQ5t/qXRdxTckT7BduamZQITHbeTgMpSo5QQ6y+pScAArz5JVi0PuKCC+uXTP2xdPV1kttTX5NlksXNhuMnlnirtOKWME8EtOurJGMcMk4BFc504a1+3jayBNdblCZbuNtmOSHe4p95ttBLvL3VzCkqOfPIqHnHIzfunpIa528vWkPlebZxc4xY+LiHC2/IOCPHJCscVoyOSFKTkZyK9x+iXRaURPidZagcUhhSZRbbZQHXfRhSMpPBPhzKTzJ5J9Q4nkHU2HcnT173Mu2gbemU7cbUwXpEhIbVHPEthSEqCyorSpwJIKRgpUD7V2dVq3N2XibCbj7e6x0xfZqrHJuzcC5Sbmtj+xVLOFkqwkcFsl78n0dskrypOLK0ClKUClKUClKUClKUClKUClKUCot6r/xA6l/0X+ds1KVRn1SRpEvYbUzUVh19wNsOFLaCohCJDS1qwPoSlKlE/QASfags5So66cdZTNe7PWPU9wfdfmSGe3IdcaQ2VvN/Nuq4o9IBcSsjGPBHgewkWgUpSgpP1dXR3cTqHtO2QXNjWSxIZduq20LKlrdCVkoSjnzWUOtNNAo5F54oAPMZsTwdQ0yZDJjvqaSt1hSkqWwojJbUUkpKknweJUM5wTUB3Ow2699f+q37g13fkqDHnx0KSlSS8mLEbSVAg/g9wqGMEKSk58YM90ClKUClKUClKUCvy8XksrMaK7LfCT247SkBbqseEJKylIJPgciB58kDzX6rlt3/wAUusPzFN/kF0EE9G1qnXbdG5bz3yxPzIz10cgRBbWXXVNXGW4kuOcEk8I7TLrhWt0hIC045rHi9tQ10X6W+1fp60/3oPwky79y6Svne53e6r5lzwSE5YSx6RjGPICuVTNQKUpQQZ102uBcOm++S5jHdetkmJKhq5qHbdMhDJVgEA/NvOJwcj1Z9wCNN093K3XHZzTXyfd2rp8LAajSFILuWXkoTyZUHVqUCjIT7hJABQlKChI3PXLcdR23p7uq9Pp4syJLEa7PJdKFsw1qwriQoE83O02oYVlDiwRjJHDdIEO2xtirXIgLZW9LlSXJ/beKyl8OFASsZ9Cu0lk8fHpKVY9WSEu0pSgUpUR9Su5+ods7TZpNhs0WZ8fIcQ9JlocWyzxSClGEFPrXkkZV7Nq8H3SHPbeOytsetly0JurKLJrhpyQ8iTIIHN3urbGPSnu/ENqbbyFHg9xGVLNXNHtVJ9tNE7r7y7m6G3M1LbtPWjTtrUzPjzoC2XfiQ08HAzhLq3eZWOJCylLeF+kLyld1xQZNYFZrAwPAGBQQB19WL5X6epc/4rs/IlyizuHb5d7kox+Gcjj/AHRyz5/AxjzkbLbq/fbRoOxahU5FcdnwGnn/AIZWW0PFI7iB5JHFfJOCSQUkHyDXTdTtkj6g6f8AW0GU66021aXZwU2RkrjYkIHkHwVNJB/aJxg+ar10SF6Lt5Pt0mK60t+ULrHdJSUOx3SqMCMEkEOwnwQoD2SRkGgn2lKUClKUClKUClKUClKUClKUCuW3f/FLrH8xTf5BddTXLbv/AIpdYfmKb/ILoNh0Rtob6ZdKqSnBcVMUo/WfjHh/4AVNNQz0S/8ANi0j/pv89fqZqBSlKCje7GuY+1/WpqzUF8tNwft9xtsdhKmEgLKDHjEOIC8JWObJQfUPyvOU4MmWndV+53BqDG2u3HQ67niqTaW47YwCTlx11KE+3jJGTgDyasxXl+Trf+oIv7in/hQQXM1VqRMR5UPbPUj0kNqLKHZlubQtePSFKElRSCcAkJVj3wfauccvm/l5XDiWLamyWh5+QlLkq56ijyWm2zkKUW2lIc8eFEgKOAcJJIqy/wAnW/8AUEX9xT/wp8m279QRf3FP/CgrBO216rHZT0hvcPRMZtx0qSwyypSGgpXhKeURSuIzjKiTgZJPvWl1Htb1ac7WpGurFPKLiyr+wHkMBjGfnXgWG+4yn8pv5zlkehWPFv2GGWEFDDLbSSckISAM/wCavpgfVQVRY2s6sGYMaGjc3RxbjNpbQpbYW4QAACtaoZUtXjypRJJySSSaydrurIDI3M0af/kj+p1a3ApQVTO2HVlwCPumaLwCT/aE58/t/Bftf+c16Lbs31DXqWLRrnc3T/2sTULYuiLbGQqS4wpJC0N8oqAFKB48s+nPLCscTaSlB4bDaoFiscCyWtj4eBb4zcWK1zUvttNpCUJyoknCQBkkmvbQ0oI/3i3c0ntZa/jtTN3lfPgGUQ7a64l5SlKHBLxAYCwErUUKcCuKSQDkZhrWHWpoeBHaGl9M3m9yVdpTglLRDaQlTfJQ5/OKK0KIQRw4khRCiACqZeoHQUHcTay8WSRavlOexGflWdr4hTPGelhxDCshSQfUvGFnj58jxVeNDbaXm9aLsl5cuOgAq4QfjCHNurcpSfiI6OCSU8Qe0olaSEpyonnzThACPN9+qi67maEk6OiaPhWWBO4/GuOzFSnVcHW3EdshLYR6myDkLyD444yZR6Q4V/sOg5+mb7onUGnnI84zTJujS2kzVvJCCGkLaRxShDDWfUskrJyAQK2NpsMjQF5ZlS9y9DaSVNaQyH4WmLXaZLrbTeHEoedKk8VuFt1wFChySkI7YOK1Fu3n2C0I7Mmw75qzWVzvKwZU1uOpTzDbRJaaW5J7SnQnurSlay4vgkJUoJQ2AE4Uqvlq6gtaXW3M3K17H6gnQnwSzJjPvONOAKKSUqTGIOFJUDg+4I+iu52p3OuOrdQztPak0VctH3VmEidGizu6VyY5WUKdHNpGEpVxH08uRx+CaCSq5bd22/K+1uqbemB8oOu2mT2I4Z7qluhtRb4pwcrCwkpx55AY84rqaUHBfY+9S/LGxrliddhd6w3J6O2y0r50MO4eStxOSfU448kHABDePJSo1Ywe9UG+x5akbtG6c2wPXdptrUEB1LcEMqUtyTH4uNrK+GEjtLlY9XnirkM9vN+RQZrBrJoaDw321wL5Y59kujHxEC4RnIsprmpPcacSUrTlJBGUkjIIP1GqVdJTFw0VuFrfa+/RA3c4axI7iIyUpWlpXbUruKSlxTaw40tsEceKlKATzPK8NUw6q0o256r9H7jCI1Ftt1YQidLcUp0LWjMeQvtpUVAojOM4wMEgHCjyBCwNK8tnuEO72mHdbe93oc1hEiO5xKeba0hSVYIBGQQcEA16qBSlKBSlKBSlKBSlKBSlKBXLbv8A4pdYfmKb/ILrqa5vdONImbY6qhxI7siS/ZZjTLLSCpbi1MrCUpSPJJJAAHvQe7ol/wCbFpH/AE3+ev1Mxqkux+4++m1+ibPpmRsfeL5YWorzsL4eDKalZckrUS6sJcSnz3MILaFFJQrOCCqQfvjt0/8Aqyaz/wDqk/1SgsyKVVdneDqe1FcJ8jTWy0C0W2P28NX5DrDieQx/bXnWEu+pKj6EekFIPuCfqdw+rj9jXQX7/Z/r1BaOlVVn686vJMF+OzoHRMN11tSESGZ0cuMqIwFpC5iklQ9xySoZHkEeKQLJ1eSYLEh7dzRMNx1pK1x3kRy4ySMlCiiIpJUPY8VKGR4JHmgtVSqnyrd1aMZA3d0e8oKwQ1DQf8+TCAxXw+G6uP2UtLfvNn+p0Ft6VUww+rUMpcG7GkyonBbEJvkP2/7ix/t+mvn8N1cfspaW/ebP9ToLbE/t1z9+1xouwPFm/avsFqdDpZKJtyZZUHAhCyjC1D1BDrSiPfDiD7KFVC3Xh9UDm3F+GodwbPcbOmGtc+LAQ2w86wPLgChHbPHiCVJ5jknknCs8TuNnekXRepdr9O6j1Pe7+3dLrBRNcRbpTIYSh31tABbBUFdtSOXk+rlgkYoJ5vu/e0Vot65z2u7LKaRjkmHKRIc8kAYbQStXv9AOACTgCo3T1ibeOa1tFtbjSWtPy4fenXeR3EuQHuLh7Ko6G1lw5S2kqQopy59ITk7vTnSXsvaoK486z3O/OqcKxIn3J1LiUkAcAGC0niME+Uk5J84wBIFv2e2ohQWIbO2+k1tMNJaQp60svOEJAAKlrSVLV48qUSSfJJNBv9FapsWtNMQ9S6Zn/H2qZz+HkdpbfPgtTavSsBQwpKh5H0fVW6rxWW02qx2xm1WS2QrZAY5dqLDYSy03yUVHihIAGVEk4HuSa9tBiqaaJ6Wt5ob7ka47viw2/tApNomy31KWlKG0JLauykJDaAnPIkBCEgY9rmUoKzaJ6M9ubT8I/qW63nUclrn32u4IkR/PIJ9CMup4gpPh3ypOfY8akxzY7biHoe56d01pWzWWTKtsuDHunwQkSo/xDTjal91Z7q8BxQwV/g+nIHgSZWaCoXRVeHrls25b5FxafXaLo9GYipCAuNHWlLyeWPOFurkEFXvxUAcJwOD30uWrtr+oj7pEVDci13ZuM2822pGX47KWEOxlkpUWirtJw4B9PpJKVAdrsrGGiuqPdTblYssSLcAq6QWmT2+PBQfYYZT6R4jSneSAk47fg8UkmQN+bYzeNltWW95gPYt65TX1pdZHcSofT+SRj9v6aDa6A1vadwLCdQ2ONGjQFvLaZablqedSB5HfSpKe0758tgrSPBStYUDXQVCvR2YUvbGVe++3MvU+5vqu8tTbhkOvBXIB1xaj3VcVhWU4T84fHLmpU1UFQ99bU/s/v9Yty7O6Vxp9xNy+EZkLZdK21IMppS/V6HQ4fPthxaePEDl/QsVWXqiiSpuw+pmYcZ6S4lpl1SWmytQQ3IaWtRA/JShKlE/QEknwKkHpD1N9tHT1pWQ49CVJgRjbHm4ys9n4dRabCxklKy0lpZBxnnkAAgUEsmsZOcY8fXWTSgVWD7IxZLZK2nst+kOMtXG33YMRVOKcy4h5tRcaQEgp5EtNryvGA0oBWSEqs/XMbrWK1al211JYr3KhQoEy2vodlzG0raiegkSFBRA+bIDgJIwUA5GMgK99I1++W9lLcwt2U6/an3oDq31cs4PcQEHJPBLbjaRnGOOAMAVLlVX6ELy2mXqjTz013uONsTY0UlRQAkqQ84PyQfUwD7E4Hvx8WooFKUoFKUoFKUoFKUoFKUoFKUoPSifOQgIRNkpSkYADqgAPq96+b8mRI499913j7c1lWP8AXXypQKUpQKUpQKUpQKUpQctu/wDil1h+Ypv8gupF2J/EhoT/ACbt382bqHOpq4TLZsXqiTBe7Tq2G4ylcQrLbrzbTicEH3QtQz7jPjBANSt043WBeNhdDy7c/wB9luyRoqlcFJw6w2GXU4IB8ONrTn2OMjIINBDm2d71jZupxsXrUt0u9l1lPv0S32164OrZtqYrgcS4EKJTn5tbYSkDilQIUclItGKpnoG17s3TdLR+mNXaDumnJNm1K9eV6kjsrdaSwtDsh2IXkZbKXlL7alJcx5SlSFFJBuYKAaUNKBSlKBSlAKCpvUf/AOgPV5tjuMj5Ghwrpxt8x5/5vGFlmQ+8r0j0sSmwlZUcdryOKQDMLrbbrS2nUIcQtJSpChkKBGMEfUa0nWbt05r/AGblLtVpfuGoLM6mZbkRkILy08gl5sZHJSS2VL4JIKlNt45EBJ5XaXdLTWpNr4OoLtqa2xJMRLMK6quElmKpMwoJJ4kgYc4LWkpGCEq9ihQSHAbXJToLqf1LoRUlTdruzCp1rYS66Wu6tKHVBKEntg8A4kqUnPzISFDJCrDVV7qO19p20bhaU19orUtjvd/tjD0Z2GHFyGuwtLgQvk3hHgreynuBWVNnjgk1ZyHJjzIjMuI+1IjPtpcZeaWFocQoZSpKh4IIIII96CoPVFpxxnf+03XWdwfY0jeXozSZLLpccixW+0iSlKOKilSeSnAAlQJcyMnkBeva7R0DQGhbdpC2L5wrf3UsqIUFKSp1awV5UcrPLKiMJKslKUJIQmu3WFaY9x2PuEx5bqV2yXGlsBBACllwMkKyDkcXlHxjyB+2DMfTHrqBr7Zmw3KNNmy5kCM1bbo5LCi6ZjTSA4pSiTz5cgsKychYzhXIAJNPtSs1jFArzz4kWfCkQJ0ZmVEktqZfYebC23UKBCkqScgpIJBB8EGvRSg/m9sCr7nnVFN0m5OivMCXOsL0t9Pa7vbWeBSOWErW4y2kJJV+HxGSQaulVYuvPSfyDuc1riHPj2yTcGmpbDynnvi5cprtsqbY7aShtLKG2HeSy2ol5fFTmAhuf9ur99tGg7FqFTkVx2fBaef+GVltLxSO4hPk44r5JwSSCCD5BoN9SlKBSlKBSlKBSlKBSlKBSlKBSlKBXF707gxdtNEHUci2SLk45Mahx47ag2hS1hajzcOeACG1kYSrJwMAEqHaVXvrpvcVjbqyacW28Zc67ia0sJHbCGGXELBOc8iZKMeCPCvI8ZD2WzqcsVpuk+17j7f6r07Pj9vtxY/Bx0cgVHuIeDRR6Sgp8HIUT48Z+l16rNswqN8lWLV60l0iSZLMdPBHBRCkcXTyVyCRxOBgk5ykJVcOuZve32gb5dHrpe9D6Zuc9/j3ZUy1MPOucUhI5LUkk4SABk+wAoKj3/qy08z2PkHSV0nZ5d742Q3F4e3Hjw7vLPnOeOMD3z4K6jNZTLCu5WrZ66Fh2FIlRppfdejhtkhLrx4sJC221KSFkKAGQCpJIq32nNE6L01OXO05pDT9mluNllb8C2sx3FNkglBUhIJBKUnHtkD6q+N7290DfLm9dL1ofTNznv8AHuyplpYedc4pCRyWpJJwkADJ9gBQVCf3V6jVNMBnZeehwNkPKXp24KC18lEFIBHEceIwSo5BOcEJHTwd49zUQWETunDWz8tLaQ+6yJLTa149SkoMRRSknJCSpRA8ZPvVtYMSLAgsQYMZmLEjNpaYYZbCG2kJGEoSkeEpAAAA9sV9qCkOub3v1u3Z7zoi1bIO2S0zmmXCu4sPMyUBpxtZxJkKaaUorT+ClAPEkYPEqq0uwWkHdCbN6Y0tIbfblxISVy23XEOKbkOkuvICkekhLji0jGfAHk+57qlAFZxWBWaDBpQ1igzSlKDIpWBWTQYzVYLP0Y6Ca1TcLnd73c5drcnd+Daoqfh22GealfDuuKU446niUp5JLasAnOSCLP0oIZ3U2K0fM2fv+n9D6UtVquzlp+GiOxY6G3pHacaeQ046SCsrXHbBW4okElRJ85ijo/15L1ZoF6xXP1TdO9mM24hhKEKilGGQSD6lp7a0k8R4CDlSio1b76Kozu5s1r7ajeQ7kbaaYbvtokTXlwoEOM5IXDU6yQtDjDKUFLQK3Q3wJCQlAUQSAoLIzI0eZEeiTI7UiM+2pp5l1AWhxChhSVJPgggkEH6643bN5na7d2Joa0xWl2LXk2VOixGkhlFoejxQp4p8KLoeIRhOUJb44SDkivPcb9vdK0+zI0tsk4JE6A04HLzeIrYjOqKVKSWA6lw4SMAqLagVepAwUn7bTaE3Y1DuBYNe7pRbJpt3TDspEC2QEd5yYmRHLbi1rDy0oSn0ccZJIWCEjiSFiKZpSgz9FYpmlBXnrx063P2jY1MrvduyTWhcUMzVx3JMB51tLrCcJUgqU6iKsFaVBJa5DJHFUZ9E91uadOak0bdYstiRYp6TwkrUFsl3mFMdtQy3xWytRH/ScV4BBzavdbTX25ba6j0ulqE69c7a/HjfGJy0h8oPaWrwSOLnFQIBIKQR5AqlXQbcIbV21ZaVvYmSY8WQ03xPqbaU4las+wwXWxgnJ5eM4NBa2lKUClKUClKUClKUClKUClKUClKUCqude/8A7F/6d/8Ar1aOoC65bXAe2stN6cY5T4l7bisO81ehp5h5TicZwcqYaOSMjj4xk5C5gr+cto1jvdr7elnQ2o9zb/Ybo07IgSFQHgy2wuOl1agW4ym21q5IUnnnOMeSABX9B9N6fsGmoK4OnLHbLNEccLy2IEREdtSyACopQACrCUjPvgD6qjbUfTvtldbxcNQQ4V3sOop8lyUu82q7SGpTbriyp1SOSlNp58lpI4YwogAeMBBGpOn3WmpYKIGo979QXmIhwOoYnsPPtpWAQFhK5JAOFKGffyfrr0/eqbef4Z1T++WP0NdpeumXVztzecsnUBraFAPHtMzFuyXUekZ5OJfbCsnJGEDAIHnGTz1/6PdRagDHy/vddLt8Py7Pxtscf7XLHLjzlHGcDOPfA+qgibUNj1Hs5vpp/SW0urrtbJGoGoqCuc+lbK3nnnmEd5Ab4LQnORyQopJJHnFX90mzeY+lbTH1HLZmXpqCyi4yGRht6QEAOrSOKcJK+RHpT4PsPauS2d2g0PtXazF0zbecxfMPXSYEOTXkqUCUKcCRhA4owhICfSCQVEk9/QZFZIrFZoMZrNYNZFAxWKzTFBilDT6aDNYzQ0oFKVnwKB9FYoaUGawaYrW6ovlt01YJt8u8hLEKG0p11ZIzgDOBn3J9gPpNBsqVpdFapsWtNMRNS6Zn/HWmZz+Hf7S2+fBam1elaQoYUlQ8j6PqrdUClKUCqP3K0v7c9d8qP8UYdr1QXpaXJTrR+JRJQpwoB/I/stsoSPCjwSPVyyq8FVQ+yBW+TZntAbm26NbTJs10MdanUHuPL8PsJVgAqbSWXsjkMFzx+ESAmClavSN+t2qNM27UNqc7kKewl5vKklSc+6FcSQFpOUqGThQI+itpQKUpQKUpQKUpQKUpQKUpQKUpQKhfrkUn73+2I5AqGqmSRnzgxJGP/A/6qmitNrLSun9Y2RVm1LbGrjBU4l3trUpJStPspKkkKSfcZBHgkexNB5L31X7J2+1vTImo5t2ebxxiQ7Y+l1zKgDxLyUI8AknKh4Bxk4B43VnV4i0WyHd4OhIU6BL/AAM6thGUnkpZb5x2e64jLSUFXMJ4LUpBzgKV9k9Puz4CgdHg5HublL8efcfO/wDnNfew7EbR2l5h86LjT32JBfQubMkuA/OFaUKb7gbWhPhPFSTySkBXIkkhrdC9Xs3U1zLbezuoZMBn+637NJM91jKVcPm+ygeopx5WnxkjOMHd6k6mNSMTkI07sLry4RC0Ct2fHchuBeTlIQhp0FOOJ5cgckjHjJ7W1Wmz2hp1iyWa2WiO64XVR7fERHa5kAcuKABnCQM+/gV6/wDFQV5++N6ls/iki/8A25cf0tTT0wbsau3FnaysOt7FbLXetMTm4z4gKV2yVF1CmyCtfqSthXqCyFBQwBjKt7UF9K+rIemepjcbRN1gXJu56ovTjkFXZAbQhn4t8qc5KCgFNrSUFKVA5z4BBoLhj2qvXW7rfcXb3SuntR6H1CzaYi5rkKegxmnnHVrRzZKQ42oBKQ09nBB9SfB+iwtVm+yN/iQs3+UjH82k0GmkwertiQ4wvdPSpU2soJENrGQcfqOv3FgdWz6+Ct29IMEkAdyG2Ac/tiEf9tSvab1F1La4mo4LbzcS6somsIeADiUOpC0hQBICsK84JGfpNemgiz7X+rj9mfQf7mz/AFKvL8m9WX7MmjP3iP6hUu0oIcn2TqtmwX4b28uk0tvtKaWpmOplwBQIJStEIKQrz4Ukgg+QQa4XafQUzb7rO0NAumpvtiudyt8q5z5fbWnEhyNLDieSyVO+pBPcISVcvKQas7VZt9kayV1X6LXt/G+K1Kxa2pEJgyAyl7tuyVrQtRWgcFNpWFDkOSSU/TigvRStXpJ+9SdL2p/UcJqFeXILC7gwyoFtqQWwXUIIUrKUr5AeT4HufevnrHVGntHWJ6+anvES1W9kHk9IcCeRCSrgge61kJOEJBUceAaDc+1eebLiwmkuzJTMZtTjbKVuuBILjiwhCAT+UpakpA9yVADyardrLrM25tUxyLp61XnUXDOJKWxGYc+aUpPEufOf2zghXJAwCtQ5cQlcZW/cDqW3AYvUSyWMQLLfLj8b8ReIbbjbUGQ0EIjJ+IT23YwaCVEtslSiSo57hCgtXrXdzbrR8H46/amZbiCa5bnH4rDsttmU2AVx3VMIWGnQDngvCiAcA4OK83PrRS/qtljS2iJt1t7xDDEJ9QYluunhwUFoLoPJSnEdoIz6EKDh5ltHP6V6a7jdb87qDdfVr99mLcSVtx5LjqpAQEBPdkOgLI4pUgpABACcLGMVYe0223Wi3t261QIsCG1ntx4zKWm0ZJUcJSABkknx9JNBEdr3B6ptatd2LY9NaOhuNKLbs1hbayQrjxKFKccSr3IJQkEJz9Iz9tw9udYai281IzrbcaZqxbUF2ZbojdnUw6mS02tTSGu08UErXxSoLacJSCEFCjyEwUoI8+x8avbvWzcjSzjjIl6cnLQG221g/DvlTqFrUfSpRcMhPpxgITkfSqyNUx2UmSNouru6aMeMSPp3WYL0UZajtNqJccjhI8n0r70ZLYKORWDj8EVc6gzSlKBUZdU9i+2Lp61rA+K+G7VtVO59vnn4VSZHDGR+F2uOfo5ZwcYMm1jPnFBTzoq1Mi67XP6eWtoSbFLWkNoQoHsPEuIUonwSVl4ePYJGR9JnWqabPML2i6n1aTuMxtxD70izPOuw3m3AFOn4dXAj0l1TbCwQVo7bwPL3Kbl0ClKUClKUClKUClKUClKUClKUClKUClKUClKUCq5anXF28629L63vrj6LLeAE/FKaDbLDioyoZBcUoJIQS04s5BSlz2PjlY2uY1bt3oPWN1iXHV2mmbs9EQW2l99xlXEnPFRQRyAOSArIGVYxk0HZ6v3u2p0qyw9eNb2zg+opQYZVM8gZ8hhKyn/PioE6s95dmdxNlbjZLLqP5TvjEmPKtjXwMtni6lwJWrKm0p/tK3hhRx58DOKk2zbfbcWggwdu9MAj6XYhdP8A+ajW9MK2iKqCxaLbGgKSUGCzFQmPxVnknt44kKycjGDk596CBdvuoXaLS22OlrVKt96+Mj21uPKi2qM38082kJccc7nbR86rk4ChSyeSivio4PsvHVntpGgLcsek9U3KafCWrgpmM0PB9XJta1Zzjxj2J81NVjs+k7HcmLpaNC6RgXFgENzItnZZeTlJSohaACMgkHGPBI9q9+opBv8ADkwrqyxIiSWlsusKbBQpCk8VJ85OCPfzQQBp7qZvF7hMP2vYG7XZL0lURt6DcpC0OPhsulpPGOrKw2CspyTxBVjFbGNv1rWUl1THTRqh5PdW2gtyJRCVIVwWlR+G8lK0rB9sEYPkGphbhQ27nMujcSOifO4fFyUtgOyOCeKO4vGVcU+BknA8CvvQRTD3A6ibzCck2fY2x2qGFltC7u4G3EDxjIdcbUo+R6uOCc/4q5u77c9Qd63ItO5Qu+3tm1BbYvwcYR3wEtNrQ5yUpBQtKiO+4knJ8jwCACZ6pQcBYNvN5HYZe1b1DvxlcsKj2qE24Snx5DnpIOc+yDjGc/V5dT7DaFv3zuodSaz1LcPHKXMuWAo8cAhJScY8DGB4+mpJpQeHS9lselIqY2lLJbrCzwbQv5PYDSnghCkJ7rg9bxAWo5cUo5UVZz5r3rUpaytaipSjkknJJ+usUoFKUoFKUoIF3+Tbx1BbLrb+E+UTfmQ/xKe/2hLjdvmPwuHIu8c+M88eyquTVP7nbocnrz0CiWz8W2u0rkBuSouoQ423MU2pCVkhHFSErASAAsFX4RJNwKBSlKBSlKCifWZNZ0l1P6auT70p+3Jch6hkR0obKkOhaGHO2cJJCmoDOEqUQFciCORqztRf9kH0lcL3orTt6tlreusiJNVbkx2YrrrjZlKaKXkltQwrmwlkBSVBRkYGFcTWOlrVf21bO2vuM9p+z/8AJTuE8Uq7KEcFJ9RJ+bU3knHq5YAGKCUaUpQKUpQKUpQKUpQKUpQKUpQKUpQKUpQKUpQKUpQKUpQKUpQKUpQKUpQKUpQKUpQKUpQKUpQVj6mNS6h23390luNaIMJ9bFpcjxPiwVtLcBeS6lSULSvwiSgg5AyR74Iq1eyW5cHcyxzrjFXZguLJ7Ybt1zVK5NFI4uqStpp1rKw6gJcbST2ipPJJBPOao07Y9UWldp1Daotyhrye2+3y4KKSnmg+6FgKUApOFDPgioI0fp/T+1/WxpG2aelO2e0Xa2r77Ds1XbWtxuQ2hnKzlQU60yQlRVlwpx+SAF2qUpQZ96xWRQ0HI7waIi7j7b3nRcyc9AauTaAmS0kKLTiHEuIVxP4Q5oTlOQSMgFJORTzpBuqdN7g6y27unxVvlfEqVFgSJaHktOsLWh5vkkhK3ccMqQnCgyo+AkCr4VRbrdtl32+38sW6FpfhIXdEpcaQ2XkuKdipbQ4l714UhaFtp9BQCnKSnIK1hZqlfKHJjzIjMyHIakRn20uMvNLCkOIUMpUlQ8EEEEEe9fWgUpSgUpSgUpSgUpSgUpSgUpSgUpSgUpSgUpSgUpSgUpSgUpSgUpSgUpSgUpSgUpSgUpSgVXvqpkRdNbi7Xa6lWx5yJaruHJ0iOwC4pDTzDqGuRwCohLxQlSgM8z49RqwlQp1oWqRcdmDMYW0lFruTEt8LJBUghbICcDyeTyT5x4B+nAIW6pUf9Oepftu2N0hfVOzX3nLaiPJemK5OuvsZZdcUrJKuTja1Ak5IIJwSQJAoMilKUA1CXWvp6Leen3UU4WNm43S2ttPRH/hA6/Fb+JZL60KwVIT20ErIwOKTnwKm2sGgqp0jX75b2UtzDjkp1+1SHYDq31ZzhXcQEHJPFLbjaRnGOOAMAVLlVf2Kac2r6ldW7VPxXvhZzy0Q3HFIce4MpW9HWtSSEgLjrUo4TnkUjCfUKtBQKUpQKUpQKUpQKUpQKUpQKUpQKUpQKUpQKUpQKUpQKUpQKUpQKUpQKUpQKUpQKUpQKUpQK5vc/TKNY7fXvTSkNKXOiLQwXVqQhL49TSlFPnCXAgnGfY5BHiukpQRT9j03C+WtCTdvZbUJh7Tvz8JSXsOyWH3XFrJbPk9txQBWPGHUAgEZVaWqIz317C9VUfW89vvaZ1M+8XH1S3AplDq0GSpSGgOfaWsLCFIWlSeOPnAFIvdQZFKxXlnXCHCwJUhLZP5PknH14HnHj3oPXSq17hdXekLPe27HomxTdaz1vhjMZ0sMrWVKRxbVwWpxRIRjikpUF5CsjB4q97vdTetVXNnSO350vDy12jKZDclkeCeLkkoQ5kpVnDfgKx4OCQ3X2QewwrVbNK7p21b0bU1vurEBl8KCmy2EvPoJQoEFSHEZB+kLUFBXp4yNobUEbVWjrRqOKGkt3GI2+W23g6GlkDm3yAGSlXJJ8A5ScgeRUGjYDWes7mi5bt7kzrspt51SI0R1bwSlYz80t0BLPr90JaKcJAGM+mctD6ZtejtKwNNWVLqYMFsobLrnNaiVFSlKP1qUpSjjAGfAAwKDc0pSgUpX5W4hJwo+aD9UrCSCMis0ClKUClKUClKUClKUClKUClKUClKUClKUClKUClKUClKUClKUClKUClKUClKUHBb+aH+3/bO4WZhHK5MYmW7zj+yGwcJ8qSn1pKm8qOE8+WCQKhLZKT1NM6fj6R0tIOjrPaGVlCrva0tpdW48tw4LzK1qUStX4ICQEjOCcqtVSggS76F6j9W3CGjVe78eHCY55ctC3GVjI8EttNspc8gDKleATj6QfLbuljTr3xMnU+r79dri++p1cljtsc+WCSsLDqlKKuRKuXnPt4ybC0oOM2w2y0lt3b/h7BA5y1cw7cJISuW6lRB4FYSMIHFPpACfTnGSSezpSgUpSgUpSgV8Xkcl5zjxSlB9WxhAFZpSgUpSgUpSgUpSgUpSgUpSgUpSgUpSgUpSgUpSgUpSgUpSgUpSgUpSgUpSgUpSgUpSgUpSgUpSgUpSgUpSg//Z;" parent="1" vertex="1">
          <mxGeometry x="-660" y="245.95999999999998" width="576" height="541.04" as="geometry" />
        </mxCell>
        <mxCell id="Ov13HfRZUzcDuJOu9g-e-6" value="Start point" style="shape=umlActor;verticalLabelPosition=bottom;verticalAlign=top;html=1;outlineConnect=0;fillColor=none;rotation=-15;" parent="1" vertex="1">
          <mxGeometry x="-200" y="611.63" width="20" height="40" as="geometry" />
        </mxCell>
        <mxCell id="Ov13HfRZUzcDuJOu9g-e-7" value="&lt;font color=&quot;#ffffff&quot;&gt;Block 1&lt;/font&gt;" style="rounded=0;whiteSpace=wrap;html=1;rotation=-15;fillColor=#0000FF;strokeColor=#0000FF;" parent="1" vertex="1">
          <mxGeometry x="-310.59" y="465.37" width="55.24" height="19.49" as="geometry" />
        </mxCell>
        <mxCell id="Ov13HfRZUzcDuJOu9g-e-9" value="&lt;font color=&quot;#ffffff&quot;&gt;Block 2&lt;/font&gt;" style="rounded=0;whiteSpace=wrap;html=1;rotation=-15;fillColor=#FF0000;strokeColor=#FF0000;" parent="1" vertex="1">
          <mxGeometry x="-319.83" y="444.88" width="59.42" height="20.49" as="geometry" />
        </mxCell>
        <mxCell id="Ov13HfRZUzcDuJOu9g-e-15" value="&lt;font color=&quot;#ffffff&quot;&gt;Block 3&lt;/font&gt;" style="rounded=0;whiteSpace=wrap;html=1;rotation=-15;fillColor=#0000FF;strokeColor=#0000FF;" parent="1" vertex="1">
          <mxGeometry x="-320.76" y="425.39" width="55.24" height="19.49" as="geometry" />
        </mxCell>
        <mxCell id="Ov13HfRZUzcDuJOu9g-e-16" value="&lt;font color=&quot;#ffffff&quot;&gt;Block 4&lt;/font&gt;" style="rounded=0;whiteSpace=wrap;html=1;rotation=-15;fillColor=#FF0000;strokeColor=#FF0000;" parent="1" vertex="1">
          <mxGeometry x="-330" y="404.9" width="59.42" height="20.49" as="geometry" />
        </mxCell>
        <mxCell id="Ov13HfRZUzcDuJOu9g-e-20" value="&lt;font color=&quot;#ffffff&quot;&gt;Block 5&lt;/font&gt;" style="rounded=0;whiteSpace=wrap;html=1;rotation=-15;fillColor=#0000FF;strokeColor=#0000FF;" parent="1" vertex="1">
          <mxGeometry x="-330.76" y="385.40999999999997" width="55.24" height="19.49" as="geometry" />
        </mxCell>
        <mxCell id="Ov13HfRZUzcDuJOu9g-e-21" value="&lt;font color=&quot;#ffffff&quot;&gt;Block 6&lt;/font&gt;" style="rounded=0;whiteSpace=wrap;html=1;rotation=-15;fillColor=#FF0000;strokeColor=#FF0000;" parent="1" vertex="1">
          <mxGeometry x="-340" y="364.91999999999996" width="59.42" height="20.49" as="geometry" />
        </mxCell>
        <mxCell id="Ov13HfRZUzcDuJOu9g-e-23" value="" style="rounded=0;whiteSpace=wrap;html=1;gradientColor=none;fillColor=#66FFB3;strokeColor=#66FFB3;sketch=1;rotation=-15;opacity=70;" parent="1" vertex="1">
          <mxGeometry x="-275.52" y="460" width="130" height="300" as="geometry" />
        </mxCell>
        <mxCell id="Ov13HfRZUzcDuJOu9g-e-24" value="Back-light area" style="text;html=1;strokeColor=none;fillColor=none;align=center;verticalAlign=middle;whiteSpace=wrap;rounded=0;sketch=1;opacity=50;" parent="1" vertex="1">
          <mxGeometry x="-160" y="410" width="59" height="30" as="geometry" />
        </mxCell>
        <mxCell id="Ov13HfRZUzcDuJOu9g-e-25" value="" style="curved=1;endArrow=classic;html=1;exitX=0.5;exitY=1;exitDx=0;exitDy=0;entryX=1.003;entryY=0.199;entryDx=0;entryDy=0;entryPerimeter=0;" parent="1" source="Ov13HfRZUzcDuJOu9g-e-24" target="Ov13HfRZUzcDuJOu9g-e-23" edge="1">
          <mxGeometry width="50" height="50" relative="1" as="geometry">
            <mxPoint x="-150" y="510" as="sourcePoint" />
            <mxPoint x="-100" y="460" as="targetPoint" />
            <Array as="points">
              <mxPoint x="-130" y="460" />
              <mxPoint x="-130" y="520" />
            </Array>
          </mxGeometry>
        </mxCell>
        <mxCell id="Ov13HfRZUzcDuJOu9g-e-26" value="" style="rounded=0;whiteSpace=wrap;html=1;gradientColor=none;sketch=1;opacity=50;rotation=-15;fillColor=#6666FF;strokeColor=#6666FF;" parent="1" vertex="1">
          <mxGeometry x="-330.00000000000006" y="254" width="115.53" height="210.28" as="geometry" />
        </mxCell>
        <mxCell id="Ov13HfRZUzcDuJOu9g-e-30" value="Normal Luminous Area 01" style="text;html=1;strokeColor=none;fillColor=none;align=center;verticalAlign=middle;whiteSpace=wrap;rounded=0;sketch=1;opacity=50;" parent="1" vertex="1">
          <mxGeometry x="-188.11" y="265" width="59" height="47" as="geometry" />
        </mxCell>
        <mxCell id="Ov13HfRZUzcDuJOu9g-e-33" value="" style="curved=1;endArrow=classic;html=1;entryX=1.008;entryY=0.6;entryDx=0;entryDy=0;entryPerimeter=0;" parent="1" source="Ov13HfRZUzcDuJOu9g-e-30" target="Ov13HfRZUzcDuJOu9g-e-26" edge="1">
          <mxGeometry width="50" height="50" relative="1" as="geometry">
            <mxPoint x="-190" y="360" as="sourcePoint" />
            <mxPoint x="-140" y="310" as="targetPoint" />
            <Array as="points">
              <mxPoint x="-140" y="360" />
            </Array>
          </mxGeometry>
        </mxCell>
        <mxCell id="Ov13HfRZUzcDuJOu9g-e-36" value="" style="endArrow=classic;html=1;exitX=0.5;exitY=0;exitDx=0;exitDy=0;exitPerimeter=0;entryX=0.5;entryY=0;entryDx=0;entryDy=0;entryPerimeter=0;strokeWidth=7;fillColor=#ffe6cc;strokeColor=#FF8000;" parent="1" source="Ov13HfRZUzcDuJOu9g-e-6" target="Ov13HfRZUzcDuJOu9g-e-37" edge="1">
          <mxGeometry width="50" height="50" relative="1" as="geometry">
            <mxPoint x="-230" y="600" as="sourcePoint" />
            <mxPoint x="-180" y="550" as="targetPoint" />
            <Array as="points">
              <mxPoint x="-270" y="330" />
              <mxPoint x="-380" y="360" />
            </Array>
          </mxGeometry>
        </mxCell>
        <mxCell id="Ov13HfRZUzcDuJOu9g-e-37" value="Finish Point" style="shape=umlActor;verticalLabelPosition=bottom;verticalAlign=top;html=1;outlineConnect=0;sketch=0;gradientColor=none;opacity=90;shadow=0;fillColor=none;" parent="1" vertex="1">
          <mxGeometry x="-380.5" y="560" width="17" height="30" as="geometry" />
        </mxCell>
        <mxCell id="Ov13HfRZUzcDuJOu9g-e-44" value="" style="rounded=0;whiteSpace=wrap;html=1;shadow=0;sketch=1;gradientColor=none;opacity=80;fillColor=#FF66B3;strokeColor=#FF66B3;" parent="1" vertex="1">
          <mxGeometry x="-400" y="344.9" width="60" height="185.1" as="geometry" />
        </mxCell>
        <mxCell id="Ov13HfRZUzcDuJOu9g-e-46" value="&lt;font style=&quot;font-size: 10px&quot;&gt;Normal Luminous Area 02&lt;/font&gt;" style="text;html=1;strokeColor=none;fillColor=none;align=center;verticalAlign=middle;whiteSpace=wrap;rounded=0;sketch=1;opacity=50;" parent="1" vertex="1">
          <mxGeometry x="-530" y="300" width="59" height="20" as="geometry" />
        </mxCell>
        <mxCell id="Ov13HfRZUzcDuJOu9g-e-47" value="" style="curved=1;endArrow=classic;html=1;exitX=1;exitY=0.5;exitDx=0;exitDy=0;entryX=0.5;entryY=0;entryDx=0;entryDy=0;" parent="1" source="Ov13HfRZUzcDuJOu9g-e-46" target="Ov13HfRZUzcDuJOu9g-e-44" edge="1">
          <mxGeometry width="50" height="50" relative="1" as="geometry">
            <mxPoint x="-156.16131578947375" y="294" as="sourcePoint" />
            <mxPoint x="-210.10310047830694" y="364.2615952206139" as="targetPoint" />
            <Array as="points">
              <mxPoint x="-430" y="310" />
            </Array>
          </mxGeometry>
        </mxCell>
        <mxCell id="Ov13HfRZUzcDuJOu9g-e-54" value="" style="verticalLabelPosition=bottom;verticalAlign=top;html=1;shape=mxgraph.basic.4_point_star_2;dx=0.8;shadow=0;sketch=0;gradientColor=none;fillColor=#FFFF66;" parent="1" vertex="1">
          <mxGeometry x="-471" y="400.15" width="30" height="30" as="geometry" />
        </mxCell>
        <mxCell id="Ov13HfRZUzcDuJOu9g-e-55" value="Distratcor 3" style="text;html=1;strokeColor=none;fillColor=none;align=center;verticalAlign=middle;whiteSpace=wrap;rounded=0;shadow=0;sketch=0;" parent="1" vertex="1">
          <mxGeometry x="-493" y="365.41" width="74" height="20" as="geometry" />
        </mxCell>
        <mxCell id="Ov13HfRZUzcDuJOu9g-e-56" value="" style="verticalLabelPosition=bottom;verticalAlign=top;html=1;shape=mxgraph.basic.4_point_star_2;dx=0.8;shadow=0;sketch=0;gradientColor=none;fillColor=#FFFF66;" parent="1" vertex="1">
          <mxGeometry x="-471" y="500" width="30" height="30" as="geometry" />
        </mxCell>
        <mxCell id="Ov13HfRZUzcDuJOu9g-e-57" value="Distractor 4" style="text;html=1;strokeColor=none;fillColor=none;align=center;verticalAlign=middle;whiteSpace=wrap;rounded=0;shadow=0;sketch=0;" parent="1" vertex="1">
          <mxGeometry x="-550" y="505" width="74" height="20" as="geometry" />
        </mxCell>
        <mxCell id="Ov13HfRZUzcDuJOu9g-e-58" value="" style="verticalLabelPosition=bottom;verticalAlign=top;html=1;shape=mxgraph.basic.4_point_star_2;dx=0.8;shadow=0;sketch=0;gradientColor=none;fillColor=none;strokeColor=none;" parent="1" vertex="1">
          <mxGeometry x="-340.00000000000006" y="555" width="31" height="40" as="geometry" />
        </mxCell>
        <mxCell id="Ov13HfRZUzcDuJOu9g-e-60" value="" style="endArrow=classic;html=1;exitX=1;exitY=0.5;exitDx=0;exitDy=0;exitPerimeter=0;entryX=1;entryY=0.5;entryDx=0;entryDy=0;entryPerimeter=0;dashed=1;" parent="1" source="Ov13HfRZUzcDuJOu9g-e-54" target="Ov13HfRZUzcDuJOu9g-e-58" edge="1">
          <mxGeometry width="50" height="50" relative="1" as="geometry">
            <mxPoint x="-440" y="430" as="sourcePoint" />
            <mxPoint x="-390" y="380" as="targetPoint" />
            <Array as="points">
              <mxPoint x="-370" y="410" />
              <mxPoint x="-360" y="560" />
            </Array>
          </mxGeometry>
        </mxCell>
        <mxCell id="Ov13HfRZUzcDuJOu9g-e-62" value="" style="verticalLabelPosition=bottom;verticalAlign=top;html=1;shape=mxgraph.basic.4_point_star_2;dx=0.8;shadow=0;sketch=0;gradientColor=none;fillColor=none;strokeColor=none;" parent="1" vertex="1">
          <mxGeometry x="-441.00000000000006" y="580" width="31" height="40" as="geometry" />
        </mxCell>
        <mxCell id="Ov13HfRZUzcDuJOu9g-e-63" value="" style="endArrow=classic;html=1;dashed=1;entryX=0.903;entryY=0.525;entryDx=0;entryDy=0;entryPerimeter=0;" parent="1" target="Ov13HfRZUzcDuJOu9g-e-62" edge="1">
          <mxGeometry width="50" height="50" relative="1" as="geometry">
            <mxPoint x="-440" y="515" as="sourcePoint" />
            <mxPoint x="-380" y="480" as="targetPoint" />
            <Array as="points">
              <mxPoint x="-380" y="510" />
              <mxPoint x="-390" y="590" />
            </Array>
          </mxGeometry>
        </mxCell>
        <mxCell id="Ov13HfRZUzcDuJOu9g-e-66" value="" style="endArrow=none;dashed=1;html=1;" parent="1" edge="1">
          <mxGeometry width="50" height="50" relative="1" as="geometry">
            <mxPoint x="-636" y="720" as="sourcePoint" />
            <mxPoint x="-476" y="720" as="targetPoint" />
          </mxGeometry>
        </mxCell>
        <mxCell id="Ov13HfRZUzcDuJOu9g-e-67" value="Trajectory" style="text;html=1;strokeColor=none;fillColor=none;align=center;verticalAlign=middle;whiteSpace=wrap;rounded=0;shadow=0;sketch=0;" parent="1" vertex="1">
          <mxGeometry x="-580" y="690" width="40" height="20" as="geometry" />
        </mxCell>
        <mxCell id="Ov13HfRZUzcDuJOu9g-e-68" value="" style="verticalLabelPosition=bottom;verticalAlign=top;html=1;shape=mxgraph.basic.4_point_star_2;dx=0.8;shadow=0;sketch=0;gradientColor=none;fillColor=#FFFF66;rotation=-15;" parent="1" vertex="1">
          <mxGeometry x="-363.5" y="400.14" width="23.5" height="19.86" as="geometry" />
        </mxCell>
        <mxCell id="Ov13HfRZUzcDuJOu9g-e-69" value="" style="verticalLabelPosition=bottom;verticalAlign=top;html=1;shape=mxgraph.basic.4_point_star_2;dx=0.8;shadow=0;sketch=0;gradientColor=none;fillColor=#FFFF66;rotation=-15;" parent="1" vertex="1">
          <mxGeometry x="-344.26" y="460" width="23.5" height="19.86" as="geometry" />
        </mxCell>
        <mxCell id="Ov13HfRZUzcDuJOu9g-e-71" value="" style="endArrow=classic;html=1;dashed=1;" parent="1" edge="1">
          <mxGeometry width="50" height="50" relative="1" as="geometry">
            <mxPoint x="-275.52" y="385.41" as="sourcePoint" />
            <mxPoint x="-235.51999999999998" y="375" as="targetPoint" />
          </mxGeometry>
        </mxCell>
        <mxCell id="Ov13HfRZUzcDuJOu9g-e-72" value="" style="endArrow=classic;html=1;dashed=1;" parent="1" edge="1">
          <mxGeometry width="50" height="50" relative="1" as="geometry">
            <mxPoint x="-260.40999999999997" y="450.4100000000001" as="sourcePoint" />
            <mxPoint x="-220.40999999999997" y="440" as="targetPoint" />
          </mxGeometry>
        </mxCell>
        <mxCell id="lWAWGfqHZXzT48uGb23J-3" value="" style="verticalLabelPosition=bottom;verticalAlign=top;html=1;shape=mxgraph.basic.4_point_star_2;dx=0.8;shadow=0;sketch=0;gradientColor=none;fillColor=#FFFF66;" parent="1" vertex="1">
          <mxGeometry x="-570" y="740" width="30" height="30" as="geometry" />
        </mxCell>
        <mxCell id="lWAWGfqHZXzT48uGb23J-4" value="Two" style="text;html=1;strokeColor=none;fillColor=none;align=center;verticalAlign=middle;whiteSpace=wrap;rounded=0;shadow=0;sketch=0;" parent="1" vertex="1">
          <mxGeometry x="-610" y="744" width="40" height="20" as="geometry" />
        </mxCell>
        <mxCell id="lWAWGfqHZXzT48uGb23J-13" value="" style="shape=image;verticalLabelPosition=bottom;labelBackgroundColor=#ffffff;verticalAlign=top;aspect=fixed;imageAspect=0;image=data:image/png,iVBORw0KGgoAAAANSUhEUgAAAsAAAAMbCAIAAADMw7TgAAAACXBIWXMAAA7EAAAOxAGVKw4bAAAgAElEQVR4nOzdTY/jxp3H8WLb0gBWG5YmWWl2RRo740VaA0RaYG1gJJ97z7n07Pvw65o+7N198gKhJpssEOkw7Ry8QEglLQVwK4uR45E8wz1Uukw31WySIll8+H4Ohq3H6gc3f6p/Vf2Nb7755vr6WgAAANyn0+k8fvxYCHGkeyQAAKB8CBAAACA2AgQAAIiNAAEAAGIjQAAAgNgIEAAAIDYCBAAAiI0AAQAAYiNAAACA2AgQAAAgNgIEAACIjQABAABie1/3AAAAJeN5nvwXwzD0jgQaESAAADEsb/Ru6B4R9CBAAABiWC6X8/l8NpuNRiMhBAGitggQAFApqr6QzL1VidVqNZvNLi4uhBDdble+HbWMGiJAAEB1qPpCsqfHqkrIqYi4z0JlECAAoDpUfSHZ02NVJeR7LZdLahn1RIAAgOrw1xeSiZ4DVqvVarWK+yxUBgECAPB3y+VyNpuFr6KQsw5xn0WZo3oIEACAv1NViZDHrFarYIC491mUOaqHAAEA+Dt/VSL1Z5EeKoYAAQCFpjZWWJZlmqZpmq7ruq7rOE7wwffOBABpIUAAQKGpjRWTyaTdbnc6ncvLy8vLS9u2gw8O1heAjBAgAKDQ1MaKdrs9HA7b7fZms3n16tUhWy2AwxEgAKDQLMuaTCadTqff77uu++LFi+l06rpu3NcJ7oM48NQp1BwBAgAKrd/vf/TRR8Ph0HEcx3F+/etfLxaLZAFiOBzK3RCSPG+KAIFkCBAAUGimaXY6nXa7fX5+btv2+fl5stfpdruj0ej09NR/I+kBiREgAKAcTNOcTCZ721aF7MsI0ev1RqNRxD5YjUaj2Ww2Go203h1lR4AAgHIwTXM8HluWFbzLtu3pdJogQAyHw4jHM7RupPXuKDsCBACUgzwE4q57E1y/u91ut9uN+GC5g7Tdbqf17ig7AgQAFNput9tsNkKIRqMh6whahuE4zuXl5evXr2WO2TsRglohQABAoW23W/lPWUHQFSAWi8Xl5eWrV68mk8ldlRTUCgECAAptt9vtdjv577rSgxDCdV3btuXpVaQHCAIEANSEarodq7O2OmyKLhu4hQABALWgQkCsztqqEwddNnALAQIAasHfdDt6Z23ViSOzcaGsCBAAcqWmxGNNpCOcOmPqwDOdgt0xolQu0np3lAsBAkCu1JR4rIl0hFNnTB14ppP66ahbolQu0np3lAsBAkCu/FPipIe0+M+YOuT6naxgkda7o1wIEABSE6U9tJoSV5sCgo+hupGpkO98SMHCsiwZFMbjcciBmKgPAgSA1AQnwIPUlHjIzkCqG5kK+c6HFCxkdJhMJv1+nwABQYAAkKJYE+D+TQFBpIfshH/n79Lv9yeTydnZWRZDQhkRIAAcKvWzhupc3QgpAz25EWyK4TiO3AExnU5d1434XqoqEeXBVC5wCwECwKFSP2uoztWNkDLQp59+KoTodDrBphgyOti2vVgsogcIVZWI8mAqF7iFAAHgUKmfNVTn6kb4N/Phw4effPKJCDTFWCwWtm2fn5/Hei+qEjgEAQJAmVS+umFZ1mQy6XQ66hZ1OpP62geDwS9+8Yt2ux33lW8VLJJVJVS5RPX1TlZAQdkRIACUSeWrG/1+/6OPPhoOh+oWdTqT+tq322273R4MBrFeOViwSFaVUOUS1dc7WQEFZUeAAFAmla9umKbZ6XRuzS7I05nU154gPYj0Chb+cons652sgIKyI0AAqIhk7ar1Cu65aN1QBQLVaUI9JlbpIcoBUKoGEbxLDcN/ixyPesFYvTBohlIZBAgAFZGsXbVewT0Xcn9mo9FQBQLVaUI9JlbpIcoBUKoGEbxLDePWC1qWpV4wVi8MmqFUBgECQEUka1etV/ieC3nZjn5Uw15RKhfhNQh/etg7nli9MGiGUhkECKDoojSY0CtKA4VYL1jVrtAhzbKjbJEIKTQcuP0hWCUJDiP47sHqRghVYAo2Q6GWUVIECKDoojSY0CtKA4VYL1jVrtAhzbKjbJEIKTQcuP0hWCUJDiP47sHqRghVYAo2Q6GWUVIECKDo5Ae1FI9pylPilf/VSw8itGBxeKHhEFFmifa+e8T0IPZtnyljyQl+BAgUSPHn6rWYzWZ1+56EzKgrZSxzhBwS5bqubdt7D8hS9B7TdOBmkBDUMkqKAIECKf5cvRY1DFUhM+pKGcscIYdEyQJB+Jej95imAzeDhKCWUVIECBRIqefqkaKI6y7LlR5E6CFRd62OLI4DN4OEoJZRUgQI3CPPskIN5+pRPcGDktQt6pAo9WCaR6C8CBC4R55lhRrO1aN6ggclqVvUIVHqwTSPQHkRIHAPygpALMGDklJvdw4UAQEC+6lJV8oKBVSQxeqF3TWjZVW/+m4ED0oKOWgrdWn17E4mVlOM4FCHw+FgMGi327vdbrfbbbfb7IeM5AgQ2E9NuhbzClFzvV5vOBzKGXKNZGGrgL8eWlb1q/9lggclhRy0lbq0enYf8u4Rm2IEh9rtdnu9XqfT2Ww2m82GAFFwBAjsR+WiyHq93mg0Oj091T2QIqYHoWlVf7BOEd55PCNp9exOJlZTjPChkh6KjwCBcijIpH1BDIdDvhVRqCJCDu+VZ51C0VuwSEuwy8bx8XGr1frwww81jgr3IkCgHAoyaV8QZKmI/CsSspZnnULRW7BIS7DLxtOnTweDwWAw0Dgq3IsAgXIozqQ9SkRLESFPegsWaQl22Tg9PT0+PiZAFBwBArFpqSZUftJeHg/QbDZ1DySGwWDw5s2bhw8fhjzm2bNn0fstxRJrwX/xJet7XsaChaLafywWC9M0nz9/ru4aDAYZ/dogRQQIxKalmlD5SftGo3HrjMLiOzk5abfb4R8T5UUxvC1WsjUKsRb8F1+yvudlLFgoqv2HZVmWZX3++efqrlardXx8rHFsiIIAgdioJmSh2Wy2Wi1/n8bi63Q6Jycnh7+OYRgJMkSsBf/FV41iRCxq4eTZ2dmtr329Xl9fX6/Xa32jw/0IEEhBGaffi6bVavENrI9q7J4IEavApGoZ8ntC8aIsCBBIQRmn34um2WwSIOqjGrsnQsQqMKlaxmQyubeNO4qDAIEUlHH6HdCo8gWLWAUm/yEQpIcSIUDgJ6K0wFCH88hpWMuymH6HRmq2PMqDgzPqybY/HKhiBYsQyWoZDx8+bLfbDx8+pClGkREg8BNRWmCoc/4nk0mn02m320y/QyM1Wx7lwcEZ9WTbHw5UsYJFiGS1jM8+++zTTz/95JNPaIpRZAQI/ESUFhgqWzx8+HA4HFK5gF5x5w9uXcMqX03QK3Et48mTJ+12W9AUo8AIEABqJFjvqE81Qa9ktYzNjZAH0yhHFwIEgBoJ1jvqU03QK1ktQy6A2O12IQ/Os2k7/AgQAGok//WSkBLXMqIgPWhBgAAA5Cf1JiZqXxi1jJwRIAAA+Um9iYlq2k4tI2cECABAflJvYuJv2k56yBMBAoB+yfppodQOrGUETwAbDoeDwaDdbnP8VD4IEAAKIeJRkuSMyjiwlhE8Aazb7fZ6vU6nw/FT+SBAACgT5ioq48BaRvgJYKSHHBAgAAA6JatlqMOmgncdHx+3Wq0PP/ww7ZHiJwgQAACdktUy1GFTwbuePn06GAwGg0HaI8VPECAAADolq2WEHDZ1enp6fHxMgMgaAQJRBQ9pGQ6Hjx490jgkAFUS7FSSbINGs9lstVpsx8gaAQJR9Xq94XAoj2qRBoNBt9vVOCQAVRLsVJJsg0aj0Wi1WmzHyBoBAlH1er3RaHR6eqpu6XQ6st8uABxub6eSBBs0ZICgG3jWCBCIrdlsNhoNOUnYbDZ1Dwe1w07O+jhwgwbbMTJFgEBsMt3L9ECAgBYRT51SCBwldeAGDbZjZIoAgdjk3EOn09E9ECAqJi1K6sANGmzHyBQBAlGp3EDlAkDOkm3QoNN3pggQiEqtS6JyASBnyTZo0Ok7UwQIREXlAoAuyTZo0Ok7UwQIAED5HNgNHIc70j0AAABik0WN58+fj8fj4OQEcsAMBACgfA7sBo7DESAAACUWZYMG2zGyQIAAAJRYlA0abMfIAgECAFBiUTZo+Ldj0AIwLQQIAEClhGzQkLUM/4MpaiRGgAAAVEpIB43lcimEULMRQgiKGokRIAAAlRKyQUPWMubzuf9GihrJECAAANUU5bApihoRNZvNRqMhexrIWwgQAIBqitINnKJGRDI6+JspEiAAANUU5bApihoRqX6K6sgNAgQAoOJiNc5QRQ3LsmQE2e12u91uu93mNd5sqWJErGe1Wq1bTyFAAAAqLkotQ1FFjclk0m63O53OZrPZbDaVCRCqGBH3WQQIAEC9+GsZruuGP1gVNdrt9i9/+ct2uy2EqEx6EL5ixIGvQ4AAUAuGYXiep3sU0EzWMsS+fhlBruvati2EOL6R0ygzttvtNpuNuJlUUIsihRCO48jvTMjTLcuS30MCBIC68PdbCiJe1IGsZZimGaWW4brudDp1Xffp06eDwWAwGOQ2zkzJ2ZTtdntrV4W4+ZJlbLrL559/ToAAgB8xRVEHsWoZ6rP46elpq9WqTICQa0Llv/vTgxBisVhMp9Pz8/OQpxuG8cUXXwgCBAAoZIj6iFXLqCrHcS4vL1+/fq1ukTMuEZ9OgACAH5EhaiJWLaOqFovFq1evLi8v/bcQIAAgITJEHcSqZVSV67ovX7788ssvkz2dAAEAqK8otQx1tFQ12mQsb8znc3noRTIECABAfUWpZaijparRJkNGh9lstlqtCBAAACQRpZbh75dRgTYZ8mu5uLg48HUIEACA+lJHJ8XagFB8qk4RvOvAyoVCgAAA1Jc6OinWBoTiU3WK4F0HVi4UAgQAoL6iHJ1URmnVKUIQIBCV4zjT6dTzPNni1rIs3SMCgEPFOlFKbcdQVMvv4IOzawIeUp5Q0qpTBL9A+e0SBAhEJ/vKOI4zHo8nkwkBAkAFxDpRSm3HULeolt/BB2fXBDykPKGkVaeQ3x8VGuQt8l8IEIjKcRz5v5ZhGKQHANWQrNO3usXf8jsooybgOZQnlH6/Px6Pz87O1C2qKR0BAgCAhN0xVMvvoM2NNEcphEivPKGEFGLk9MzeZxEgAABI2B0jZP9ndmsg0ipPKME6hdLv9wkQAADcKVl3DNXyu9SCdYooCBD4iV6vNxqNDMOIssoXAKqnqp2+k9UpQhAg8BPyjPderyfX9xIgANRNVTt9J6tThCBA4CdUoznP80gPAGqoqp2+k9UpQhAgAAD4URm7Y4SUJ5RkdYoQBAgAAH5Uxu4YIeUJJVmdIgQBAgCAH5WxO0bq5YkoCBAAAPwoyi4MVTKItVMjSqFBUa+spTwRBQECAIAfRdmFoUoGsXZqRCk0KOqVtZQnoiBAAADwoyi7MPwlg+jrJOIWGuQraylPREGAAABgD1XLUIIFi+BjQsQqNKhX1lKeiIIAAQDAHqqWoW4JFiyCjwkRq9CgXllLeSIKAgQAAHvsXbp4q2ARfVFkKu9eKAQIAAAiKX5ZIU8ECAAAIil+WSFPBAgAACIpflkhT0e6B4Dy2W63m83m+vp6s9lst1vdwwFS5nme7iEAJcAMBGLb7XabzWa9XrdarVar1Ww2dY8IMaR4dTQMI62X0o7QAMTFDARiYwaivNK9TFbmoluZLwTIEzMQQKVst9vdbucPds1ms9FoNJvNLC6TnueVfR6C9AAkQ4AAKkUWmDabjbrlgw8+aLVajUYjo3fkAgzUEwECqBRVYFK3eJ7HOhUAqSNAAEUXrEqECC5MkXMS2QwtZY1GQ1ZbdA/k7+R3frfbRXlw0QYPZI0AAeQt7py/nFT47rvvIj54b4AoxXLXou3rCdaDQhRt8EDWCBBArhKsGFD7ZpO9YzBSFFmhLsBxv/OFGjyQNQIEUHSNRqPVamX6FsEmxVq0bugdhrK5EeXBRRt8CHmcomVZugeCciNAAEUnA0Smn24vLy8vLy9t287uLaKQawiy2zASl1x6En0NRKEGH2IymYzHYwJEuaS4XzqtnVMECKDoms1m1nPjm83m1atXFxcXmb4LioP0UC7pnrZiGEYqGYIAAejkOI4sH+gdxnQ61T6GWundyO4tljeyewvUHAEC0Ml13el0qr12sFgsCBB56vV6w+FwNBpl9xaz2UwIQYBAdggQgE6u69q2fX5+rnsgyFW32x2NRqenp5m+C+kBmSJAAPmROyr9i/I2m03ENXpAWmRs9TyP7Ri1lcoyCAIEkJ/gwURlOeIJVSILZ47jsB2jzvYuzIyVKggQQH622+13333nP5iIGQjkz79ul/QAv1gzEwQIAHvksE0gqERHKRxoMBhw5UbZESAA7JHDNoGgEh3meKBWq3V8fKx7FMBBCBAA9shnm8At7Xa70+m02+0831SL9Xp9fX2duL8JUAQECCA/zWZTfryO0qFbSxFBGQ6H+b91QTqPV6Mxt2VZk8mk0+kUpNEJqocAAeRHdrVoNBpyL8a9ASL/IoLS7XbzDxDyG6J9W0o1GnP3+/2PPvpoOBzati33XOgeEcon/AhtAgSQH9nVQk5C3Ptpu9fr5V9E0Gu32xVkT0rZ04MQwjRNVQ8iPSCBextwECAA4CdyqKSwfRcVQIAAgJ/IoZJy7woYoPgIEADwE8WppABFRoAANFgul19//fXl5eVsNrvV8UhtvtCyDwIAIiJAABqsVqvZbPbVV18tl8tggJCbLzTu4QSAexEgAA2urq7m8/nFxUXwrhpuvgBQRke6BwAAAMqHAAEAAGIjQAAAgNhYAwEAFeQ4zuXl5evXr6fTqeu6uoeDCiJAAEAFLRaLy8vLV69eLRYLAgSyQIAAgApyXde27b07fYBUECCQ3Ha7lS0Dms1mBdofA1VCO+8q8Tzv3tZWWb+p4zjyF+njjz8ej8eCAIFDyJ5Du92uGu2PgSqhnXfFeJ4XvDHrVOF/UzmnNZ1OJ5MJAQKH2m63ahKi0WjILtUAioB23nWQ58yE67rT6fTFixdCiC+++EIQIACgtuRnSs/zTNM0TdOyLN0jgmaqThG8K7idhwABADUlP1M6jiMnpQkQkJnStu3gXcHtPAQIAKgpub5S/jvpAUII13Vfvnx5fn4e5cEECAAAyuquvRLJXu3ly5fRn0uAAACgxPbulUj2Uv5JqXsRIAAAqAj/XomsESAAoILohVEHsmDh//kuFgvTNJ8/f57DAWIECACoIHph1IGcb/BvmrAsSx5CmsMBYgQIAKggemHUwWKxmE6n/k0TZ2dn4/H47OxMCJF1cDzK9NUBAEAlESAAAEBsBAgAABAbayAAoDqWN+bz+XK59N9lWZbseRF81ng83ns7ykL9cPv9vuu6L168CNl907uhfltCfjeU3W633W53u91oNJK3ECAAoDpkdJjNZqvV6laAME1zPB5PJpPgs/r9PgGi1NQP13Ecx3Fs2w7ZfdPr9YbD4Wg0ms1mQojlchnyu6FsbpycnMhbCBAAUB2r1Wo2m+3dfNHv9yeTiVyfj4rp9/ty88X5+fmtfRlB3W53OByenp4KIVarlf/pIc9ar9fX19fr9brT6chbCBAAAJSb3LUr9jXdDiGnIoQQg8Hg+Ph4vV6HPHiz2ex2O/8tBAgAAMpNnijlum6sc8N6vd5oNOr1eqZptlqt6+vrkAfvdjsCBAAAlRKrCZbS7XZlOUP+Z/gMRBABAgCAEgh2vohbsJCGw2Gv1zt8PAQIAABKINj5Im7BQm6+6Ha7BAgAAOoi2PkiFv/mi1QQIAAAKIpgnUJJ1pk99cqFQoAAAKAognUKJVln9tQrFwoBAgCAojiwThGUeuVCIUAAQC3Is4Y8z1O3yPYHlmVpHFWthJQnlGR1iqDsKhcKAQIAakHOjTuOo26ZTCbj8ZgAkZuQ8oSSrE4RlF3lQiFAAEAt7P3sS3rIU+rliRDZVS4UAgQA1Ivq3UwX78NFqUooaZUnQuRQuVAIEABQL6p3M128DxelKqGkVZ4IkUPlQiFAAEC90Nc7RXlWJaLIoXKhECAAAAiT+uFOqcuzcqEQIAAACJP64U6py7NyoRAgAAAIU7Q6RVCelQuFAAEAQBjTNCeTibjZCus/SyMHqjwR8pg8KxcKAQIAgDBqy6tt27cO48qBKk+EPCbPyoVCgAAAIIw8NkP+e/4rHrSUJ6IgQAAaWJY1Ho8Nw5Cru3P+QIMKsyxrMpl0Oh0tk+0Q0SoOsWgpT0RBgAA0kCVVy7Lk0m7+yiMt/X7/o48+Gg6HWibbIaJVHGLRUp6IggABaGBZluxB4Hkef+KRItM0O51Ou90WQvCrpUVhKw6pI0AAQHU4jnN5efn69euQA45UX2/aeeMQBAgAqI7FYnF5efnq1auQA45UX2/aeeMQBAgAqA45u3BxcRH+GJUtSA9IjAABAMAeqgUGtZ69jnQPAACAIpK1nhcvXhSkY1bRMAMBAMAe/hYY6iApKAQIAKgptR1D3cJcvZ9qgSHPsdY9nMIhQABATantGOoW9mX4qRYY/X6fABFEgACAmvJvx1BID4q/BQaCCBBIrtlsNhqNZrPZarWazabu4QAIY1nWvVdE5urDRenrvVwuZ7OZyKApRtEQIJBco9FotVoyPRAggIKTE/Ly+ncX5urDRenrvVwuhRCr1Uq2wyBAAHvIuYdOp6N7IADu1+/3J5PJ2dmZ7oGUWJS+3qvVarVazedzIUS3281vcLnjHAgAABAbAQIAAMRGgAAAALGxBgIAqkxtvmCHBdJFgACAKlObL9hhgXQRIACgyth8gYwQIACggtQpRqPRqMJHEegS5USpyiNAAEAF9Xq94XA4Go1OTk6qfRqBFlFOlKo8AgQAVFC32x2NRqenp+12m9PeUhflRKnKI0AAQAXJg2Lb7Xar1Wo0GrqHU0eqKUZQNdpkECAAoIJkq5pOpyM73ukeTh2pphjBu6rRJoMAAQAVJANEu93WPZD68jfFCKrAwhQCBACU1fKGumU+n/v/ExqF9E8fDAaWZeU/pHQRIACgrJbL5Xw+9xfaV6sVAaIgQvqnt1qt4+Pj/IeULgIEAJTVarWazWYXFxe6B4I9+v3+eDzee4TXer2+vr5er9f5jypFBAgAtaaqAGrCebfb7Xa77Xare2h3ajabjUZDrnK4a4HkbrfbbDbr9Vo+knWU+XNd17ZtcbPn07Ks7XYrf7s2m81ut9M9wEPRjRNArckqwMXFxeXl5evXrzudTvH3PaodFiFD3W63m83m+vq6GteqMnJddzqdvnjxYjqdyrMiZHSozA+FGQgAtaaqAO12ezgcym0LRZ5+EL4dFiEBQs1ACCGYftBCnnIt/10upfT/UCqAAAEAJeM4jpwvUR9tgzhIqjhULeP4hu4RpYMAAQAls1gsLi8vX716tVgs7goQHCRVHLKW4bru06dPB4PBYDDQPaJ0ECAAoGTkJ9rwzRccJFUcqpZxenraarUIEABQBbLhtWEYg8Hg+Ph4vV5vt9tmsxnx0lv8LRvIVJS+3mqDTzXOj1IIEABqTba97vV6pmm2Wq3r62u5SbLVakV5+maz2Ww2BIjaitLXW50oVY3zoxQCBIBa63a7/q4E6/VaLjyMPvlPeqizKH291YlS1Tg/SiFAAMUiWwB7nleNhr9lJPfahT9Gy+lMUc6PUrPl8mNxnsPDXdiFASAPspHBcrmsRsPfMpIzCuHzCq1WK+QqnhEZHaS7dmaq2fJ+v0+AKAh2YQDIg2quaBgG6UELuS7y3oflvzcyyvlR/X5/Mpns7b8AXdiFAQD4O3WU0/HxcavV+vDDD3WPCMgbAQIAYlNHOVVsUhqIjmZaABCbXBZ3fn5u2/Zda++BamMGAtBAdvWV/RLvWqyXbDuGak6tblHL8kOedeBpSME3raqejzx+Sp4hkembqs0X33777TfffPPtt9+GtMAAckOAADSQGwWlu9brJduOIZtTz2YzdctkMmm3251OJ+RZB56GFHzTqlI/C3X8VLfbzTpAqM0X33zzze9+97vf/va3IS0wgNwQIAAN5NzD9fV1+AxEgu0Yct7C3yWh0+moLtXhQ4r4FkGqI3biVygR+bO4dfxUptTmi+vr69/+9rfn5+f5vC8QjgABlFiwdjCbzeR/qsrFZDKR9QvHceR2Mnm7/0x+dXJzyHn+IebzeR3qF8JXV8rzTdXZD1QuUCgECKDEgrUDlSfUgUJqAYQ8zca27clkMh6P/QFCHmnQbDYvLy8vLy/lqXnRrVar+gSI/NOSPPKy0WhQuUChECCAEgsWLBQ59+A/UEhtHBBC3GoJKNfoCSE2m82rV69qUoxIYLVarVYr3aMACoEAAWjQbDY/+OADz/NCjhRUZErYe9d8Pr/reqaO31em0+lisRBCLBaLu+YYbNuWj0G5yJqUPIay3+/rHk4dyY5ZnufJiaK4dcAyIkAAGqh+SFH6KajtGHvvums6XRYs/H/F1Hm68sa9f+AWi0Ud/vBVj2VZqgXGrekl5MOyLMMwLMsK6etdMQQIQANZ0hZCRJyBSFB0dxznrj9hKkmgMmiBoV2Uvt4VQ4AAdJIrFcTNRb0yf3fUjLrugSQhz9Ta7Xar1erq6opFD8BeBAhAJ7lXQk17ViZAqBl13QNJQp3xJZee1DlAGIYR6/E5b3CFXgQIQCfLsmTF2vO8KhVNSz2jvl6vr6+v1+u1uGPpSU3ETQ/yKWSI+iBAAAiTrBhR6r0A6litk5OTN2/e3HuI571UTSTxeNSimbuk/g1PkB5QNwQIAGGSFSNKvRdAHat1cnLSbrcPb9WtaiLJnq5Oogx5TIJvOBEBByJAAAhT6mJEMupYrXa7fXJycvgL+msiCcheaIdPhPiRHnA4AgRQCGo7RtGUuhhREKomkkyUvb6xkB6QCgIEUAhqO4bugdxW6mJEQaiaSLKnyzUQyZ5LVkB2CBBAIajtGKgeVRPJGekBmTrSPQAAQPq0pAf2cNzXIdYAACAASURBVNYKMxAAUDV5pgdCQ20xAwEAlUJ6QD6YgQCA6iA9aFefvt4ECACoiBzSA6HhXvXp602AAIAqID0URH36erMGAgBwP9IDbmEGAgBqxJ8Dok9akB4QxAwEANTFrRwQMRaQHrAXAQIASi/KXAI5AOkiQABAuZEeoAUBAgBKjPQAXVhEidiWy+VsNhNCDAaDk5OTTqeje0RATUVcBWkYxt4MQfjAIQgQiG25XMp/vnnzpt1un5yc6B4RUEexDn5IdkoE6QEhCBCIbblcygzx8OHDwWCgezhAHXFsFLRjDQQAlIyWVt3ALcxAAECGuNijqpiBAICskB5QYcxAYL9erzcajcTNiofVaqV7RJVCdbkOSp0e+BXFvQgQ2K/X68l/zmaz+XxOgEgRf5rzUerrt178iiIKAgT26/V6MkN4nif3XCAV/GnOB+khMX5FEREBAkDVkB4SIz1karVazedzwzC63a76kFZeBAgABUUOyBRZIX9XV1dyTleuMCNAAED6SA+ZIj1osVqt5CSEEKLb7eoezqEIEAAKh/SQKdJDPvr9/ng89jxvsVi4rus4ju4RpYwAAdQCl+TiCL9+p/uTIitoZFmWYRiWZdm2PZ1OCRAAyof0UBz3XtE9z0vr50V60Ms0TdM05b+7rqt3MFngJEqg4kgPxZHnFZ30gKwxAwGUAzngcFW9plb160LBMQMBlADp4XBVvcpW9etC8REggFwliAKkh8OV6Cob68ddoq8L1UMJA8gbgSCxyl8vo/xuVP6bgLJgBgJAOVT+wkl6QLkwAwFUnOM4rutWchfZIfr9vmVZapcdgLgIEEDFua4rz7HRPZBDpfvhezKZCCEIEEBiBAig4hzHmU6nL1680D2QwrEsS/cQgBIjQAA65VBfePnyJfWLoMViYdu27lEkRP2lgHa73Xa73e12jUaj0Wg0m03dI8ocAQLQKYf6gswo2b1+ScnGBIVqTxB9ESX1lwLabrebzWaz2bRarVarRYAAkC3qC7qUfWEp9Zei2e12m81mvV4LIeqQHgQBAqi8Xq/X6/W63a7ugRTLarW6urparVa6B5JE0eovlFT8ZJIQQiyXy9VqtVwubdsudVq9CwECqLherzccDkejke6BFMtsNhNClDRAFK3+QknFb7vdyn9+/fXXs9lsNpstFgsCBIDy6fV6o9Ho9PRU90AKZ7lc6h5CQgWsv1BSUXa73W63E0J8/fXX//Vf//Xll1/qHlFWCBBAfuQibfkBRdpsNv7/BMpIlVTqXMtoNBqtVst/y8nJyZs3bz766CM5A1GcGaO0ECCA/MjiqKyPSpvNRn5YAcpLlVTqXMuQCyf9yydPTk46nc5gMJA7rQgQAJKTG72ur6/VLcxAoAL8JZXa1jLk8Q/+W9rt9snJifz3opWcUkGAAAoqyu6J5XIpV3qrW+QEcr/fV7cMBoN6fiIMZ5rmZDJpt9vq/J/U30KeJnTropLAYrEoy2Ee1DJqhQABFFSU3ROz2Ww+n/sDhGma4/FYziRLx8fHt0qzEEKYptlut4fD4eZG6m/RunHg68hLcikCBLWMWiFAAAUVZfeE53m3thLID9ZnZ2fqlvV6fX19Lc+3gWKaZqfTabfb2X1/2u22fIvDX6os5XNqGbVCgEBscmbSNM1nz57xCSM7y+VSnlXASVBZUKf9ZLeOVb1FiGCZQy7XXywWqgrQ7/f9U0r3vmnWFZkSlVQKot/vj8djz/Mqth2DAIHY5Gfc8XhMjTNTcmphuVyORqPhcEiASJc67efWxtos3iLkMbLA4Q8Q8nRz27ZVFUB+lI/4gT6HikyJSioFYVmWYRiWZVVsOwYBArFZljUej58/f657IBUnF0gKIQzD6PV6uodTNeq0H+1vcatvglyHeH5+Lm5Cg5zwi/im+VRkKnMJzIf/J1il4EWAAMpHbb5Yr9dPnjzxr3jo9/uO45yfn5s3NI4T6YpSnsihItPpdD777DNRqu0hyAIBAiif5XI5n89ns9njx48/+eQT/0JLWWGVE+Dj8ZgAUSWqYXTIY3KoyHQ6nU8//fTJkyfUMmqOAAGUj1xfeXFx8fz581szEC9evPj1r399fn4ua64aB4nU+RtGa3l3ObfR6XSePHlCLQMECEAnuVdT7DsSKgrXdW+1dV4sFpZlnZ2dqVqGPAfi+Pg4zXEjJcGdGq1W6+nTp6enp0+fPm21Wv64wMHnKBQCBKCTXB3Z6/WCR0JF4brurUXdctH+ZDJRtYzBYPD06dPBYJDy0JGG4E6N4+PjwWBwfHxsmubx8bH/4PPsyhNAAgQIQCd5xoPYdyRUFI7j3JpDfv78+eeff352dqZqGf/+7//+4YcfEiCKKbhTQwYI9fPiBDAUFgECKB9V+AgaDAZy3vv4+FjOhHOGBFA0q9VqPp8bhtHtdtWniNIhQADlowofwbssy5Lz3q1WS86El/fPE1BVV1dXctJRfhIo6f+hBAigfO7NBOv1WpYtqFwABbRareQkhBCivBOER7oHAAAAyocAAQAAYiNAAACA2AgQAAAgNgIEAACIjQABAABiYxsnACAG13UvLy83m41t24vFYu9jFouF7NLS7/cty6IrbCURIAAAMcgA8erVq8VicVc3Tnm74ziTyUQIQYCoJAIEACAG2QP24uIi/DGu68p/p618VREgAADQo9RNMQgQAADoUeqmGAQIAAD0KHVTDLZxAgCA2AgQAAAgNgIEAACIjTUQQNEtl8vZbCaEkIu0S1coRVWZpmlZVr/flwdCqH2bSKCM2zEIEEDRLZdL+c/RaDQcDgkQKAjLssbj8WQykYdOEiAOUcbtGAQIoOiWy6XMEIZhlOLPCmqi3+9PJpOzszNxc/QkEivjdgwCBKCTDAfyD8dqtdI9HOB+pmlOJpN2uz2ZTPr9vu7hVE2JahkECECn5XI5n89ns5maZgAKzjTNdrs9HA5loyzdw6maEtUyCBCATnKBZHhbAaBQTNPsdDrtdlv3QKqpRLUMAgQAIAnXdR3HkZ277+rrjQojQAAAknAcZzqdyvTAIsoaIkAAAJKQcw/n5+e6BwI9CBBA0anzozgEAhqtVqurq6vVatW6QeUiReaNxWIha0O6R3Q/AgRQdL1ebzgcjkajgu/pQrVdXV3JHUONRqPZbDYaDSoXKfKfyjWdTkvxjSVAAEXX6/VGo9Hp6anugaDWVqsVO4ay0+/3x+OxPJWrLGd6EiCAgqJygfJSbTI4bCqixWIxnU4Nw3Acp9/vn52dPX36tODHbBAggIKicoHyUhPyHDYVkeM4nuc5jmNZ1scff/z555+3Wq3j42Pd4wpDgAAKisoFysvfJgNRuK4rKxdnZ2eylrFer6+vr9frte6h3YkAAWhACwwAe6lahpyBKPIkBAEC0IAWGAD2UrWMp0+fDgaDwWCge0R3IkAAGtACA8BeqpZxenraarUIEACA6mPzRTi5V9PzvJDTotSJUuzCAADUBZsvwlmWZRiGZVkhp0Wp7yG7MAAAdcHmi3ByakH++12nRakTpdiFAeBHy+Xy66+//vrrr0M2X3B+FApFtcCYzWbsGMoBuzAA7CH/Cn/11Vchmy84PwqFolpgyCShezjVxy4MAHvIv8Xhmy84PwqFQguMnLELAwAAxMYuDAAAEBu7MAAAQGzswgDwI8dxZF3z5cuXd+3dCm6+UP0y5Mk8aveXEGK32223291ul9MXgPqJtfkieH6UPCVpsVjIAyH8v72oDAIEkDnXddW5MSEB4tbmC9UvYzKZfPTRR51ORz14s9kIIQgQyE6szRfB86Mcx5lOp7ZtTyYTIQQBopIIEEDm5B/TFy9ehDwmuPlC9cvodDrD4bDdbvsfv91usxouEHPzRfD8qMViYdv2+fm5EKLgKwGRGAECKBZVuViv10+ePDk7OxuPx3JaWJYtdrvdZrNh+gGZMk1zMpm02+3FYnHXzFlI5cK27cVikfuoq4CDpAAkpCoXjx8//uSTT05PT9XxtzI6yPTADAQyZZpmu90eDoe2bYs7zl0OqVzI2JH3oCuBg6QAJKQqF8+fP5czEOouGSCKvCoblWGaZqfTkYWzu6JAeOUCyXCQFIBI1OaLf/iHf1gulxcXF1QuUF4yUvhvoa93YqvVaj6fG4bR7XaLebA9AQLQSW2+kEsfqFyg1GQhw79qkr7eiV1dXXmet1wuR6OREIIAAeAn1OaLL7/8ksoFys7frhoHWq1WchJCCFHMxrwECEAnOesghFANvoNxgcoF8ue67uXl5WazYT9FFuRxk57nLRYLuXVF94iSIEAAOsmm3ssbQojtdrvZbK6vr9VjqFwgfzJAvHr1iv0UWbAsyzAMy7LUEXO6R5QEAQLQSeUGhYIFikAen0oX74z4az13nU5bfAQIoBCCvTAAVJV7w7ZtAgSAgwR7YQCoKv+JWwQIAAcJ9sIAUFXyvOqyn7hFgEBsMjsLIR49etTtdv3z7c1ms9lsNhoNfaMDkK1gCwxkQZ0fJScmdQ9nDwIEYpN1O8dx5JR7s9lUd7VaLSEEAQKosGALDGTh0aNH8m+sTBK6h7MHAQKxOY4jNx2t1+sHDx7c+gvSaDRkjABQScEWGMiCXFJd5LImAQLQic0XQH1UY/OFQoAAdGLzBVAf1dh8oRAgAJ3YfAHURzU2XyhHugcAAADKhwABAABiI0AAAIDYWAOB5FQrarWVQPeIAKAi5Jb4dru92+2K2ZKXAIHkVCvq0WjELkQASFGz2Wy1Wp1OZ7PZbDYbAgQqRbWiNgyDLYgAkCI1AyGEKGB6EAQIAEAUsgWGaZrj8dg0Td3DKaV+vz8ejz3Pk+dAyCN9y4sAAQC4n2VZk8lEpgcCRDKWZRmGYVmWbdvT6ZQAAQCoPjn38Pz5cyGE53m6h1NK/uzFSZSoPnlUorhZ8bBarXSPCIBmhmGQIbImj600DKPT6bTb7YcPHxZtOwYBAveQqyN7vd5sNpvP5wQIAEIIwzDUvxMmsuA4jud5juN89tlnn3766SeffFK07RgECNxDNXnyPE/uuQAAPyYksiD7dsp/f/z4cQG3Y3ASJQDgUP4JCdQEMxAAgBSEZwimKKqHGQgAQOaYoqgeZiAAVN9qtbq6uvIvATZvuDfULcGny6Xvu90uxyHv0Wg0ms1mo9HQMh7P8zzPe/v2rfrPo6MjwzBIBrVFgABQfVdXV/P5XPZ+kyaTSbvd7nQ6l5eXl5eXtm2rW4JP32w2QgjtAUI2R2i1WlrG43neu3fv3r17J5OEvOW9994jQNQWAQJA9a1Wq9lsdnFxoW5pt9vD4bDdbm82m1evXl1cXKhb9r5CEVa/622OIAPE27dvvRvvv/++YRhHR5TCa4oAgRSornGtVqvZbOoeDsohWFbIzmw2u/VGi8XCtm0hhG3bi8XCf0vQ5kYOQw3RupHDeNR3TLXAePbs2ccff/zee++pGYijo6Po6YFFlNVDgEAK1AejZrNJgEBEwbJCdmRY8d8i2xA4jrNYLNS/q3/eUsM1EOo7plpg9Pt90zRVYlBrIKK8GumhkggQSIGagdA9EJRJsKyQJ/8pPXfdAvHTFhjJkB6qigABIH1RyhPBsgKKI63m3aQHcZNN/fHUtu1706raFjSZTIrZ/pQAASB9UcoTwbICisPfvNuyrGQvQnqQHMeZTqf+FTaLxeLeAGFZ1ng8nkwmsniU8RiTIEAASJ/e8gQOR+UiRbKv5vn5eaxn9fv98Xh8dnaW0agOR4AAdFoul/Jjumxa1u12dY/otmR7JShPlFRalYuKCdYgYolSsAhS7bzVLa1W6/j4+Pj4ONkwUkeAAHSSDU6Xy+VoNBoOhwUMEMn2SlCeKKlUKhfVE6xBxBKlYLH3TWU7b3XL06dPB4PBYDBINozUESAAnZbLpcwQhmHItulFQzGiVg6vXFRSshrEgYJzHqenp61WiwAB4CdULaNo0ipGyE+0/X7/8JdKQB724P9zfPh40j3CWR7y+O7du6Ojo/fee0/X8Y5VrVy4rivP/AjeJZcoWpYVUqdIVoOoPAIEUAiqlqF7ILelVYxQS8oPf6kE5OSz/xqgdzxBP9x4/4aWYVS1chFSg5AlG8uyQh6TrAZReQQIoBBULaOq+v3+ZDLRuKT81hGTh48n3RmI7Xb75s2b7XbbbDYfPHjAia7pkueU31WDkJMuWuoUpUaAAColz90c6mTlKA+W29kTv5c6vDnWmyoyLqQ4ntQdHR3JL6rRaNCeKpmQOoXqeBKkNjtQp4iLAAFUSq/XGw6Ho9Eoh/dSvZ2iPLjf7x8yN77dbmX7KPl2cQOEfGv/AA4cT+qOjo7ef//9oxu6h1NK4TWIvV1OhG+zA3WKuAgQQKX0er3RaHR6eprDe7Xb7U6nc1f/63TtdrvNZrNer4UQCab35ZHAGYwrNeSGw4XXKe5CD5TECBBA5h49ejQcDq+vr+VCh4ibGpIVI/I8TEJe1MMfk6zisPd15NxDq9U6/NVS4XleussgSkeeNam+D/7vhpZjKIOFquDum8JSnS9CHvP06dNCTZsRIIDMdbvd0Wj04MGD2Ww2n8+jB4gExQgZOxINM7btdqv+eZdkFYcgOesgs0hxFhiSITzPk1lBe3oQ+wpVwd03hRVlW5A8iTK3Id2LAAFkrtfrPXjwwLIsz/Oib7XIsxiRzG632+129z4slet9o9EoyMTDLXXOEDI9yLMrxE2G0NgCY+8n+LuWPhRNlM4X6/X6+vpaFvKKgAABZK7ZbMoP4oPBYLvddjqdKM8aDAYFL9tHEaXMoaRV78hZbTOE/KqPjo4Mw6jndyCukDpFsGd38GAremEAtSPr941G4+TkpNPpRDyJtlB/KRKLUuZQ0qp35K/mGaKeX3sCIXWKYM/u4KYSemEAtdNsNuUkRPT0IISQc5XX19eZji1rEcscSnHWN8RVwwxBeogrVofu4MFW9MIAEIkqfNTHBx98UMbpB4nrqNC6ACKuKLseUhesUyjBgoXjOP1+/+zsTB5QUcDFHAQIoKBU4UP3QPIjF0DkfCU+5JpHaPArUXoQmpqhBOsUSrBgYVnWxx9//Pnnn9u2PZ1OCRAAolKFD90DqTjDMJJd+UgPfuVKDyJmNSEHwYLF2dmZGmExd6ISIADUXYIMQXrwK2x62Hu0lGqZIVtg7H3WXQ2+U79L+eabb9rt9unp6Wq1kifOqRGquz799NMnT574z36Va4wiLlJOHQECAPYHgruui3VOD4XNCnvtPVpKlgNUC4zgs0IafKd+l/Lw4cOf/exn//Iv/zKbzYQQy+VSjVDd9fjx4ydPnvj3gcsGMQQIACiWvTMTpIcS2btMUk4AhLfACGnwnfpd0unp6ZMnT+TBcfKwWjVCddfe7jO60oMgQABAiFsZgvRQByENvtO6q9vt3jp1fjQayf/sdrvD4dD/3VaVi+CqatUjRsmzqEGAAIAwdQ4NSn3Sgwht8J3WXbLBnr/TjYwU8i7DMPzZQlUugge6qx4x6pY8ixoECABAmFqlBxFa3UjrLjnNsLfTTbfblfeqW/ZWLqS9PWJyK2oQIAAAYRLvdC2FYDUhB6pgERTsCBPrPJjlcvmHP/zh8vIyhVHe4eTk5PHjx4IAAQC4VxG6dWckWE3IgSpYBMnTX/wrG2K1ol0ul7///e+/+uqrFEZ5h+12+6tf/UoQIAAAsVRsQiKkmqCFXBe5t2ARxWq1ms/nFxcX6Y7KT+0jJUAAAKCZqlyEFCxCzqFSgntAskOAAABAM1W5CClYhJxDpQT3gGSHAAEAgGZRKhch51BpQYAAANSF7KHleZ7eHtnBrRbX19f/+7//++2334Y8K8/yRBQECABAXViWZRiGZVl6e2QHt1p88803v/3tb3/3u9+FPCvP8kQUBAgAQF34u2NovBgHCxbX19f/8z//U5zyRBQECAAAMqQ6dKtbWjfULdmVJ8wbydpkBKstqkM6AQIAgAxdXV3N53PZp1sKXpWzK09YljUejyeTyeZGrKcHs46awiFAAACQoRwOdwoh142enZ2t1+vr6+v1eh3r6cFOHOpYUgIEACCeih1GKalCQ6zuGMHyRNBsNgt/QGKqPJHDphJ1jJVpmrKKQYAAAMRWvQyhCg2yL0bEABEsTwTJkJHOKH9KlSdy2FSijrH6/PPPCRAAgOQqliH8hYZut5vgWflT5QmR/aYSdYyVYRhffPGFIEAAAOpMJgDDMFShQd0S5ek5lCdCHjOZTMIfkCkCBMok4sediP/nA8DV1ZXnecvlUhUa1C1Rnp5DeSLkMf1+nwAB3C/6ZKnneWQIAFGsVis55RByixb+8kQxESAAAMhVnuUJuXbBMIxWq3V8fHx8fBzr6bvdTh4dsdlsdrud/y4CBAAAucqzPOE4jud5juM8ffp0MBgMBoNYT5cnV263281mc+sUSwIEAAC5yrM8IQ9vEEKcnp62Wq24AUIegC2YgUB9sAwCgBbF3z2RFgIEKsu/6JIwASAfxd89kRYCBGqBCQkA+Sj+7om0ECBQF2QIQJJNE/YeXGiapmVZFfhwnK4oVQlFS3lCphbP80KaYjQajVar1W63k/X1fu+99x48eNBqtR48eCBvIUCgRsgQqJu9p6c4jiNbJwTvGo/HwtevGVKUqoSipTxhWZZhGJZlhTTFaDabrVar0+nIpt5xA8T777//4MGDDz74gACBmiJDoD7uOnvNdV3bts/Pz/fea1lWloMqpeJXJfwTJHc1xVAzEOJmc2YsMkAwA4FSSqVzD+kBFbDdbu+dgl6tVldXV6vVKticOrgfr4bUnH+UB1dj08SBHj58+Itf/MLzvJOTE3kLAQJlwuUf1RbxeiZP9fnuu+9CHnN5eTmbzWRz6tFo1Gw21V0Jpq+rR835R3lwNTZNHOjnP/+5YRg///nPP/nkE3kLAQIACiH6BJs8XXi9Xoc85uuvv/7qq68uLi7W6/WDBw/8V0pmIMRP5/wRxc9+9rOf/exnQohOpyNvIUAAgH4qPcjaRPgFPpgAVMFC3TKbzeR/rlar2Wzmf7C6K8h13b2LK/3YqQGJAAEAPzp8nc2BZHlCti+6S3ABxNXV1Xw+9wcFGSnkXUIIf8tpdVeQXL2/dw2/wk4NSAQIAPg77elBRCtPBMlphouLi7133TXfEKT6JoRjpwYEAQIApNTTgzzPZ7FY9Pt9Oeevbgl51uZGrPcKqUoAkurr3el0Op3Ow4cPo2znCUGAAO5RhE+lKCPHcabTqW3b8gAi0zTVLSHPirIGIiikKgFIqq/3Z5999umnnz558iTZiVIKAQIIQ3pAYovFQp3XJOf8/bcAOVP1KcMwHj9+LDdTyJJZshckQABhUjm9ChUWUpWwbVveLnOD/xagAggQwD3IEAgRUpVYLBb+TQ0yZ4RvcABKhAAB3I8MgbtEqUpE3NoAlAsBAgBiU5WL4lcl5LlP/X4//GHRz4kfj8ccAlFYUfp6p4UAAQCxqcpF8asSsVpRRyETSVqvhnRF6eudFgIEAMRWov0U/X5/Mpnc24qaTnXVEKWvd1oIEEAkuS2DcBzHdd2Cz4pDS+UivAnFXb+fk8nk3voF6qnZbLZaLRGtQXwQAQKIKp8MIbsZhZ81BO20VC4sy5pMJrIVRXTyHMyMhoRSk03eG41GshOlCBBADDlkCNd1yzI3jpyZpjkej58/f773XjYKIa5Go9FoNOQkRIITpQgQSIFcULb3LjnjmvOabVkFKOnGuel0Sv2iGiJuf4iO7Q9Iheu6L1++NAxD/nFOPEFFgEAK5IfmvTO6cvl3zn/15HjuyjQHymEGoqTRB7ew/QHFpJpiyN9PAgR0chznrnqw3FCU/3im0+mLFy9yfl/AL+L2h1jYK4HDyU8p8iOWaZqJMy4BAtkKqW5k5+XLl3yIB4BMESCQrZDqRnbkGog83xEA6oYAgWyFVDcAAOVFgACKTu5kyecsIHmYzG63y+G9lEaj0Ww2G41GQcYTxWq1urq6Wq1WwbvU5ossTnDyPG/vMgj2cOKWWE0xkp0oRYAAik7u/k9xMX+IzY0c3ktp3SjIeKKYzWZCiL0BQm2+yOgEJ7ICoojVFCPZiVIECKDo5DLpdBfz32W9Xl9fX6/X6xzeS2m3251Op91uF2Q8ES2Xy723Z7H5AogrVlOMZCdKESCQAnVaVGFPcErxPKv8P/+Nx+NUZsLl5GR4OWCz2eRfLwj5g6VlPFF0u93RaCRCaxlAtREgkAL5EXk8HssmDgUMEGqEugeSRFrRR16nwz9bJGioczj5jnvfV8t4onj06JEQotfrhdQybgk/woHCBEqHAIEUyKLv8+fP5elmuoezhxrh4S9V3j/0MkAUsBxw77xIAXW73W63K//9rlqG370HQOXW7hVICwECUfV6PTlnq8iV881m89mzZ/IjsrxOaxpgGDVCJVn72lIrbDkAEhkCOTuwKQYBAlH1ej31T0ktnpcrDMRNpaCAx/WrESpR5vODSv33vW6BqYzIEMjTgU0xCBCIqtfr+dODEEKunO90OuoWy7IKmB722m63m83m+vpa90CAnyBDIDcHNsUgQKDQsis0RN/rDAA1EetEKQIECi1ZoSGK7XZLgAAAv1gnShEgUGgUGgAgN7FOlCJAIDl5dc/0LSg0oBru6mGxl1wG8ac//cl13T/96U/v3r3zPG/vwgh5WnYqx4SgqmI1xYiFAIHkZD7NdGcghQZURtwMsVgsfvOb3/zmN7959+7d27dv3759G3yYXPVGgECIWE0xYiFAIDl5dS9goyOgmGJliMVi8d///d//+Z//+cONvQ8ry74n6BKrKUYsRym+FgAgLYZhHB0dvf/++0dHR9FjB5AbAgQAFNHR0dF7NwgQKCACBAAUkX8G4uiIv9UoHNZAAEARqQDBDASylqwpBqkWAIrIMAxZv2ANBLLmuq5t2+fn57ZtR19oyQwEABSRrFwwA4EcOI7jOI5t257nB+DzkAAAIABJREFURW+KQYAAgAL54Ycf3r59+8MPP7x588bzPP8ujG63++jRo263u1qtrq6uVqvVYrGwbVtwohR0IEAAQIG8ffv2+++/f/PmzXa79TxPVTGEEL1ebzgcDofD+Xzued5qtZKtFF3XHY/HsoCte/ioEQIEABSInHuQh7jfmoHo9Xqj0ej09NQwjOVyOZ/P5cyzEMLzPE6UQs4IEABQRHINxHvvvfeP//iP//zP/9xsNkejUbfb1T0ulJVpmuPxWAjhum4qTTEIEABQOIZhqG2cjx49kusber1er9fTPTSUVb/fn0wmpmm+fPnStm0CBABUjSxYqG2c//RP//Sv//qv//Zv/6Z7XCg3y7I+/vjjyWRiGIbct3ngC3IOBAAAiI0AAQAAYiNAAACA2FgDAQAAhPA1xTg+Pm61WsfHxyEPJkAAAAAhbppiuK57cnIyGAwGg0HIgwkQAABACF9TjNPT01arFR4gWAMBAAXied7bn3r37p3nebrHBdxGgACAAvE87927d7KlFgECRUaAAIACkQFCRgcZIwgQKCbWQABAfjzPkwdN3uXt27fb7fZvf/vb999/v9vtZIa4FSC63e5oNBJC0NcbCZim+ezZM8/zDmyKQYAAgFyFZ4i3b9++efPmu+++kx29985AyI4Y3W6Xvt4QN2efRyF/kUzTTKUpBgECAPIWkiGizECorlr09Ub09KCYpmlZ1uFNMQgQABCbqh3MZrPVapXiK+92u+++++6vf/3rZrP5/vvvf/jhh3fv3r179y7Ft0BlxE0PhmHcW0STVqvVfD43DKPb7d7VBpYAAQCxyc/98/l8uVwul8sUX9kfIN68ecMiStwlwdxD9GfJ3+rVajUcDsVN1ewWAgQAxLZcLmez2cXFReqvrALE69ev37x5s7eEASRLD9GpZOx5Xrfb3fsYAgQAaHDXTPLf/va36+vrP//5z99+++1ms/nhhx/+/Oc///73v//++++73e6jR4/u+muO+kgrPRy4HYMAAQB67J1X+P777/0B4u3bt3/+85+///57x3GGw6GsSec/VGiXxZTDgdsxCBAAUCByBuJPf/rT9fW1moH44x//+MMPP3ie1+v1ZE0atZJRwcKyrEO2YxAgAKBA3rx583//939/+ctfXr9+/d133/nXQMhNH/4Hqz0gcmNev9+fTCb9fl/P0FEzBAgAKBAZIFar1W632263u91OHm4tfAvj1YPVSjfTNMfj8Xg8Nk2TU6SQDwIEABTImzdv/vrXv/7lL38J3hWyZVQWs8/OzjIeHfAjAgQAAMWV9Y7NcCEnShEgAAAoKL3pQYSeKEWAAACgiLSnBxF6ohQBAgDSdGBnbbmT4tYLOo7jum6ao0Th5ZkeopwopWoZJycnjx8/FgQIAEjXgZ215X4K/7Om06n8y572SFFcOc89RDlRStUyttvtr371K0GAAIB0HdhZW57t47/FMIy4RwSi1PKvXEQ5UUrVMtrttryFAAEAhRYsagRxflRl6F33EKs7BgECAAotWNTY+xjOjyqCvZf/6M1Uta+ajNUdgwABAIUWLGqgmO66/BuGESVDaE8PImZ3jKPchgUAQD0VIRykjgABAEDmqpchCBAAAOShYhmCNRAAcI9Go9FsNhuNhrql1Wr5/xOI6K71EGXMFgQIALhHs9lstVqtVkvd0mq1ms2mxiGhvIIZoozpQRAgAOBejUaj1Wqp83MEMxA4jD9DlDQ9CAIEAEjBOoVCXEDdRDlRigABAELsq1MojUajFAEi4mfZ6OcaobainChFgAAAIfbVKcol+kx4xHONUGdRTpQiQAAayKnywz/U7na77Xa72+1SGVWmVqvV1dXVarUK3tXtdh89etTtdkMeE8K8ceAIVZ1CTtguFouQB9u2fdcDTNO0LEs2sChsfwoyRBY8z4sb48q7AEIQIAAt5IfdvbPlsWw2GyFEKQLEcrmcz+fz+Tx413A4NAyj2+2GPCbEs2fPOp1Op9M5cIQq0sl+3NPpNOTBsjC89y7ZukJ2ryhyfwoyRBbiZohMByN+Wq5K/e0IEIAGKc6Wb7fbw18kB8vlcjabXVxcBO/yPK/X6w2Hw5DHhPjoo49Go1GKpQc5YXt+fp7s6bJ4fHZ2ltZ4skOGyEJx5hVu/XBTHxgBAoghWHqQc913fRi9y2Aw+MUvfnH4NU8GEf8wer1er9frdruxXidZ7SCW2Wx21+uvVqvZbBb+mBCLxSK85U9cIeUJoNQSZAi1HUPdoprLEyCAGIKlh8vLy1evXr18+TLW62y323a7fXJyksp4ms2mGsZwOByNRnEDRLLaQdy3WC6Xd90lhFitViGPCSErDnEzXPgLpvhqiIt5kUzFzRBqO4a65eOPP5b/QoAAYgiWHl6/fn15efnll1/Gep1U0oMQotlsyvMQ/cOQ5YBYr5OsdpCWZLlBcRxn7x4zlJG8tpEhMhUrQ6jtGMG7CBBADLvdTq5blBP+q9VqOp0mmO6+a1tUYmoYMgrEfXqy2gGQnVJniCIsg8jhu0eAAGKQAWK73f7hD3+YzWbz+TzZdHd2s+6qHBDr6QfOAQBZiJUhihY49GaIfL4VBAgghu12K3c9XF5efvXVV4nn/LObdScKoEoixoJiFj50ZYjcvgkECACISh0SFfKYIp8fVXCJL7fyUl2o9FBwqYQbAgQARKUOiQp/TJHPjyqsA69npIe4Ds8QBAgAiKpEh0SVi/Ylh/V0YIYgQAAxqIOkQvo7W5Z16zOo4ziVPFogOJ+/WCzkFxvrrhKpXnmi+B0ZSl2byP97G/d7dcgICRBADOogKXl8097HyA+pz549U7dMp1PbtisZIG7N50+nU8/zZEqIfleJVLI8UeT0IJEhor9XsmclGyEBAohBHSQVPgMxHo+fP3/uv1Hu28xljPkJzucbhiF3l8S6C7gXGSLKuxzy3AQjJEAAmZOR4vDXyaEUIusLtz5k3/WHybIsx3H8TadUF4lgf4rgXf1+P/heABI4PF0lyBAECCBzwcPkk8mhFBKsv4RYLBZ//OMf/TMrKt8ET8oK3jUejw3DIEDUnLxoyetf8YspxZTW3Ezc3t8ECCBzIYfJx5V1KWRv/eWuP0/n5+e//vWv97a9DjkpS93leZ5lWQcPGSV26ypV8OWcxZRRZSfKz4IAAZRGWqWQEOPxOPqUQL/fPyQVVW9HAxKTSxw8z3v37p28dB0dHVUpTGSUjTJdF3LvmAkQQGmkVQoJEWtRgtxPkXg8ldzRgMQMw3j37t3bt2/fvn373nvvCSHkPysj9QyRw6rSvW+hvgoCBFAaKZZCUiHHo3sUqA7P896+ffvDDz8IIY6OjnQPJ30pZogi7EkhQAAACsEwDDX3UKX6ReqKkB4EAQJInfx/O/z/cP44ArfIT+fvvfeeXP1QyRmIVBQkPQgCBKAFq80BP7WNk9wQrjjpQQjBjwrQo1B/CEKUZZw1Rx6tg6L9z8gMBKDN4X8OMrpsFO3vFMKRHuqggP9XMgMBlFgWf1MK+HcKIUgPdVDM/ysJEEC5pfuXpZh/p3AX0kNNFPMHTQkDKD2u+vVUzItKFvydMmr7217AfqTMQABA+dQtPSj1+cKDiva1MwMBxOC67uXl5WazmU6nsjk1kL+iXUgSk/uZ/REhuMM5+ID8xpe2yvzgJAIEEIMMEJeXl6o5NZCzil2EgoFgb4bY+8hyqdgPThAggFgcx7Ft++LiQvdAUFPVuwjtVb2T1ir25UisgQCAcqjkRegut+Ybyj79kJZC/Q4wAwEAJVCoK0c+koWGAu5WSFdxvkBmIACg6GqYHpKR36jKf7sK8gUSIAAAFRGlF241FCFDECAAANVRh/Qgac8QBAgAAEpJb4ZgESWAH7mu6ziO9jOy+v2+ZVmmaeodBpAK7VMFGSFAAPiR67rT6XQ6neodxng8Ngyj+AEi4oWhPpPqGhVnb8ItVU0PggABwM91Xdu2z8/P9Q7D8zzLsvSO4V7RLwyFvbZVhtp8UbTvc4XTgyBAAGXkOI7rulkUGmzb1l6/EEIsFgvbtv23UNRAiGBPDeSAAAFos/fTSZQ/gtkVGgrS40N+gf6RlKWoAV1ID/kjQAB63DW3GeWDVEEKDdlxHMdxHP8tpShqALVCgAAKKqROUcNm4sGihlKK6gYT7KgeAgRQUCF1ioIUGvIULGooZaluaMkQ1WtrGR2hLWsECKCgKl+niCVY1FBKVN3I+ZKmznWuYYYo7L6MKiFAAIVTzL963W730aNH3W43u7dYrVZXV1er1Sq7t6iPfH6Fivm7KooRm7QPIGsECKCICthUsNfrDYfD4XCY3VvM53PP8wgQh8vzoh73tzS3sck3ksPLP+Uk+5/XP85C/e+/FwECQCS9Xm80Gp2enmb3FoZhLJfL+Xye3VvUQTGnBBQtkxY5v+nh6UEUYxIlHAECqJRer9fr9bIoNIxGo0zrFzWR7EoW/Vqy98WLdinK83Ke/xlTKX6r7/3B6Q2LBAigUrIrNMhokvrL1lDiDHHIm9Y8Q+TzRiKDukOR55MIEECl5FBowOHY0ikKvAAzsUJ9e3NAgABQJqZpWpbV7/fVLZPJxP+fuTnwely9yyfqhgABoExM0xyPx+Px2H+LrlOkyBCoMwIEgDIxTXMymZydnekeyN+RIVBbBAigoCzLkp+zZVOMup1djSwUbRlElRz4jS1jjjzSPQAA+6mP2pPJpPiNHlAWZbxQFV8N04NgBgIoLMuyLMuaTCbippWU7hGhIpiHSFc904NgBgIADnTgBYBrOUqKGQgAONThSynDXzzxKwPZYQYCAFKQ3WWeKQoUEzMQQMpc17Vte+9d5o2ch5SbA/txz2azW88tzrFRSF01ZlZquwBCECCA1MkFj3t3XU4mk/F4XOEAIXtpJm6nuVwul8ul/5ZCHRuFFJX6wqnUOT0IAgSQOsdxHMe5695qX/yWy+VsNru4uEjrBYt2bBRSUfYLp1Tz9CAIEEDqLMsyTXPvNPt4PM56+l1ewjN9ixDBGkQsZS9YZLc9skoHVlbmCwEBAkhZcNbdf1fWMxCyBHDIVfzAd79Vg4ilAgULMsRe5R05QhAggJTpnXU/8BKuVzUKFmSIW8o4ZkRBgABikEdDtttt90Y+b7p3PmOvMjbOUJWLchUsEFFJc084FkAIAgQQi2ma7Xb7l7/8pW3bd221yOJNo7fDmE6ntm2XLkDIykXpChaIKEqGSHxJzv9iTHqQCBBADKZpdjqddrsthMjtIu1vihFF6RpnVKNygXDhGaJELdFJDwoBAtAjo0p5lHqH67qy0pH6u0dR9q0WUdCtaq+7rvSHf69yyxCkBz8CBKBNsstM+LOi1DtevnzpeZ7GAFH2rRZRBH9MpAqR5bHcOWSIOqeHvV87AQLQKe5FRf4NCnlWlHqHYRiO4+gqc9SnYOH/Md37g8PhMs0QpIcgAgSgWfSLiv9v0CGXIjkHoOsvWvUKFiHkj8nzPP93W3uG0D4AlEjIbwsBAtAv2bU87rPUH4JY2zpSV8mCRQjP5+hIWwNkQgMSCP+1IUAAdaEmLeRh29HPlsDhVIYQOq7lpAckcO+vjbY4DCB/qhKveyC1c3R0dHR0ZBgG6aGMargAIsqXzAwEUC9l/FtWNIkvJ6SHMiI93IUAAQAxJLicyKeQHsqI9BCCEgYARMUluVZq+OOO9SUzAwEAkdTwclJn9flxJ/5KmYEAgPvV53ICUacf9yFfKQECAEoj+p/7+lwCU5fWt674CyAO/EopYQBAmZAMMkV6iI4ZCAAAhCA9xMQMBHC/ZrPZaDQajUar1Wo0GrqHg7zxob8sEvTTcm9EebA8iN2yrJDH1CQ9CAIEEIWMDjI9ECDqhvRQLnEzhOu60+nUtm0R4Wf97NmzyWQSEiAqnx78bfwIEMD9ZIBot9u6B4K8kR7KKFaGcF3Xtu0XL15EebDnebIX3V33Rh2iJumei0WAAADURbBgYdt2xPpFuLqlB0GAAADUh79goW45PEBUNT2Ef10ECABAXcQqWERUz/QgCBAAkBvXdR3HSWXCHMmkVbAokYzSgyBAAEBu5Mffly9f6h5I9d11/UulYFEi2aUHQYAAgNw4jjOdTtOdPwfukml6EAQIADmT0/iLxSK7t+j3+5ZlmaaZ3VsAUmEXQGSdHgQBAkDO5DL46XSa3VuMx2PDMAgQyFqd04MgQADImVwHcH5+nt1beJ4XftgwcLiapwdBgACKT67bXywW5g11S3ZvGqsKEKsqYdt2piMXQiwWC7nRn1oG7hVsbyEXWjqOE/Is0oMgQADFp+b8J5PJeDw2TbNoVYBY48lhGbwcj+u61DJwL3k09Xg8Vre8fPnStu29AUJeaEkPEgECKDr/nL+8FhatCpDDeGJxHEf+9aeWgXtZljUej//jP/5D3WIYhvyV1jiqBHJOD4IAARRESFViOp3K29UfNXVLdlQVIIocqhLVYJqm/KQbcqKUnE43TXO73e52u+12m914ZJ/6ZrOZ3VtkIco1L/rVdDweVyBl5p8eBAECKIiQKoCa81cz83lWASI+uFaH84TwNzsOkrPlpmm+fPnS87y7AsRkMnn27NnmRnajbd3I7i2KrwKrZLSkB0GAAAoiShVAzcznIM/3qgxVIL/rD7plWZZlTSYTwzDkoVJ7HzMej58/f359fb1er6+vr7MbcKfTabfbnU4nu7fIQrozEGWnKz0IAgSQumTV05CqhPyE1O/3w9+0btMAcqq/3+8vFouiNZgIn4coju12e9cMR7PZlAWOtN5LlmMyrcikZbPZlGKcQmt6EAQIIHWxJv/9z7rrKbJw7l8lHmTbdoI3LTX1bZlOp3eVAzTy/40ubJjY7XabzWa32wXvknWNFAOEDCtpVWTCL4EHfsPv+p4Ujd70IAgQQOpSn/yXRfGzs7PwhxXtCpo19W2R5QDdwwlT2AkJOSVw10W90WikuDxCvlGmFZm0lGIGQnt6EAQIIAr5QU0IIZesp/ixLIooNZED92V0u91Hjx51u93Er5C/0WiUw4CjX/vD/zQXNkPcJSRYJFOKq3JZFCE9CAIEEIUMENvtNvV53Sii1EQOXADR6/WGw+FwOEz8CvkbDAb5JJ60/uzeep3CHkYkhVQ3kpG7UtN6tTorSHoQBAggCv/ir/w3zeewIaLX641Go9PT00zfJV1l3D5QIuHVDehSnPQgCBBALKqWUZZlVuFU5SKfckC6Kvaz2KvgsxQohex+iwgQQAyqllGNi5aqXPR6vV6vp3s48VTsZ6EUvNsCyiXTXyQCBBCDqmVUY0VYGSsXSsV+FkDqso6hBAggCXnpFUIsl8vlcrlarXSP6LaQ46fkkT673a6MlQtAo8ViMZ1ODcPo9/u3moDnINYCiNTTgzqtTu6gFgQIIBk54d/tdmezmRCigAEi5Pgp1WShjJULQCN/p/icu3DpTQ/i5mu3bXsymRAggOT8l97VajWfz/WOJyjk+CnZYWG9Xuc/KqDU/J3i82zBpT09iJsDaV68eCGE+OKLLwQBAjiQqmUkI4+lajQaqqwQfIyqkkRpiqGMx+Nbj5Svn/r+fgCZKkjlwrbtW4fNECCAg6haRrKnq37KIb2bVZUkSlMMxTTNW5+QZHSQ6YEAAZSC9rkHVbkInlZHgAAOcuAyAnkaUrvdDi8ryCpJxKYYd5EBgsoFUBba04P4aeXiFgIEoFOU05BUlWQwGLRarcQJgMoFkBa1HUPdkvq+jOI3TyFAADqp05BCygqqSmJZ1vHxceJ+hlQugLQEO9Skuy+j+Onh/9u7u+Yk7veP40sgQIAQMPcGGuNUTaqOjdPR6EGPnD6C2kfZh+BMD7W2tW2SqVptY0yIgWBICIS7AP+D68/127Jk3U3IHb5fBxmEBZZUux+u63tjECCAs2XeZeMwbV0SehDAmbPuUNPFeRkXIj0YBAgAAM6P09wuS2dYaP9F79FjrJMvFAECAICzdMySw5GHT+oMC+2/6D3mYwgQAACcO2eVHgzTDAvtv9jMubAiQADoWalUyvxdyjCMqakpWY/rrE7pk/Scw+FwJBKJRCJnfUZwp9Gi9/S1WA8+heEO1q6E0vaETiqxaVhYESAA9KyOQ+U9Hs95DhB6zrOzs3Nzczdu3DjrM4IjEgU8Hk+j0Tg4ODDPeOrv7/f5fF6v90xOzNqVMD8k/zr0b51Nw8KKAAGgZ3UcKn/KOyi6pef86NGjSCRCgLhwJECYZ1d5PJ6O5YfT4aQrYf2X4gQBAgAAR2SF+I4ZVBeB8Hq9Pt9/rq0nV37QARBO+hRdR4AAgP/p2JPu7iLBWuvu4mvidMhy8h33o9GxNX19ff39/eaSg9frPYkKhPmvpZM+RdcRIADg/x12Ufd4PN3KEOSGCy2ZTC4sLPzwww82x8h4ybYiRNe1/YV0NXuiWwgQAC62sbEx2Sskk8lsbm5mMpmjvc4pXNpJD+iKTCaTTqfT6bQsZVur1U6uT5FokbXwq9Wq/HMzCBAALjrdK2RpaanZbB4tQJAecIGk0+mlpaWlpaVCoVAsFguFwsn1KRKJxMLCwoMHD4ots7Oz8hABAsDFpnuFeDwe+R+r21cgPeBiyWQyS0tLT548yeVy29vbR95gzwkZ9vH48eOdnZ1cLrezsxOPx+UhAgQAnKyjpYdMJrO4uGgYxtjY2MTExNjYWLfPC+fa3t5eoVDI5/MHLbVaTX6+ePFiZWUll8sVCoUjbLGrXQknB3/zzTeXLl3a2dkpFott70WAAIATdOTaQzqdNgwjk8ncvn3b4/EQIHpGs9l08reiUChsbGxsbGyUSqVyuVxqKZfLb968WVlZ2d7elkEJbk9AuxJODr506VI8Hs/lcjIGwvwQAQIATspxOhcySs4wjGazOT4+fvv27e6dF86MzJ5wkiHy+fzGxsbr16/3TPL5/N7eXjabzWazR+5caFfCycHaubA+RIAAgE/r4kxOh2TBokQiMTs7e57X3j4r/f39fr/f7/d3/ZXD4bDzly2Xy1IeMEzhQH6ab+gfhe6XUa/X6/X6gUm95f3797JA5H6LFiH29vYqlYr9idn0KR48eCD37+7u5vP53d3daDQ6NDQ0NDQkJQ1zpcHauVAECABw5JQzhHxNvH///uDgYDgcPrX3vSj8fn84HD6J30w4HO7v73d4cLlczuVyuVxOI0Kj0TCHBgkKckOfpQMaqtVqpVKpVCoaRKotHz9+lEpDpUXHQFQqlU92Lmz6FBos8vm8xJRkMunxeGKxWK1W29/fLxQKerC1c6EIEADg1GlmCFmz6PHjx1JAPtGR9heRBAidEdBFrioQpVIpl8t9+PBBIoL5p7nMID/1WZIbqtWqVhdkyOTe3p6WGfQhTRuuPoWTPsXu7u7a2prMfx4aGpITKxaLHRsWVgQIADht8u3QMIz19fW1tbUTmsHv3Mm1A5ywZrK2gn9HwWDQ6/XW63WPx+N8dXAt0Zsv9sZ/Gw25XE5aElaZTOavv/766aeftNEgRYKtra2jVSAkRlRM5GUNw/D7/V6vNxQKWX8b1p6I3h5u0T6FtSuhGo1GJBJJJBLRaFQ+eLFYdD4qkwABAKdNvh0mEomff/652WyeeYA4uXaAKzaDBqzk+tpoNCRA9PX1ORmZKF/6i8WijjzQd5Q6QaPR2N7ePixAbG1tLS8vN5tNufBXq9WdnZ3d3V39yn7YAAjjvznJXJaQM9Go4fP5ZPOtQCAgN4R5Nw1rItE3un79+o0bN27cuKF9CikqFItF68dpNBrRaDSRSAwODjYajZ2dncOiRkcECAA4bclkMplMPnjwwOPxrK2tPXv27GzP5+TaAQ61DT+0XiAPU6/XZe8JSQ+fzBC1Wk1K9Pq9XN9OBjAeHBzYVyAajUY6nZYWQ6lUKhaLkkiO9Ln/x9cSagkEAqFQSPopbfUha09EP8WdO3cePnz48OFD60fu+L6Dg4ODg4OGYTQaDbdtMgIEAJxrcnV3eLD1u7unxeZZ1q6/VtTNd8qLBAIBv98fCAScfoBDaI9frpcDAwOaAMzlBO0LaG1f6MxGfZa1a6CNBn2o0FJrMRcD5ImvXr3KZrMdz7lSqezt7RmGIeUH+RV9cnSCfCKPxyM7fXu93v7+fp/P19/i8/nktyr/rSU3KGkwyQ6f8p9Ss05fi7ZCxsbGvF6vOS7YTKM4JgIEAJxr/f39zucFWL+7y1XHfjtpuT6Z76lUKjLHT+/RIDI4OBiNRrsSIGQAwcjIyMjIiDT7Nei0jVeV66X5Qri9vZ1KpT58+GAdq6h0ryl9qNyioxB05qR+ic9msx8/fux4ztVqNZ/P60gFOStzrOlIrvHSlZDsNTAwIJlJfwaDwYGBgWAwKKEhEonoDc0Z8iJ9fX1y8rVaTesWuinGyMiI1+s11xJsplEcEwECAM41/WLq5GBrcVsuOV6v19WbViqVfD6/tbWl9+jXaMMwAoGA1L2PQwLE+/fvDcMIhUKGaRSkuV6iMUICgd6fzWbfvXv3999/mxdR0ImO8lPXcNSv7B05n+MgJQcpQjintQfpSoRCIVl3IRqN6g0tPEh0iEQiekPLFVK98Pl8koqq1aokP7/f3zZVx+E0imMiQADoEd3a17uLnAzrO0y5XN7Z2dnc3NRvxlqc1+K29Vk6orDtHvv32m7R7/FbW1tbW1vZbFbfWl8qGo1q4/w4si3//POPFCFsDtZLpt6z0aJVh7bygyQDKUK01SfabtiP1uzI2pUwj3aUG/F4/NKlS8PDw3qPlB/aKhByI9ASNJE/ynN9Pp9UMgzDkFJKqVSqVCry7q5mT3QLAQJAj+jKvt5dd+QMoQGi7bpYr9dHR0fHx8etAUIuhFonEDqS4LDTaDab29vbb9++ffv2rY4MkDJ+NpvVN9Wn66XuCB/KrFgsyiDEcDg8MDBwWIlFPpS1sqJjIJr/XYDBZgyE+QDzDSejNdtYuxI61FHlMC2IAAAJx0lEQVQ7Dl+26NgFjRr9Jm3VBSsNK/pfVuZ/FotFHQPhavZEtxAgAPSI4+/rfUKOliE0QFjr84ZhhMPh0dHRtncxWnGh49t1PA151vb29ps3b3755ZdyuSyrIn5sOdoqRj3P2pUYaNHKwfz8/L179+7fv9/1d9cA0fVXdoUAAeAzkkqlnj59ahjG1NSU7DTh6ulHqHXrE91miGw2+/LlS8MwJicnL1++nEgkdLhfpVJZXFz89ddfj3YyVlJ+WF1d1QrE3t5esViUdzzypz5z+q1dOztei1gsFovF4vG4LJZQKBRk/IG5R6OrTeurSUoQUoHQ3KCliKtXr8ZiMVmpwnC/s5r2X6wPnUnDwooAAeAzsr6+/uzZs/X19YWFBY/H4ypAHPM6etjTD7s/m83KfML79+9PTk5OTU1pvX15eXlxcXF5ednt6dlUIMxjIMzzF45W4T8ntNGgP829BnHlypWZmZkrV65kWiZa9NclO07t7u5q7JABj6FQSLsS+srSj/D5fMPDwxog7GfBdGSzANSZNCysCBAAPiOyvaFhGM1mM5lMOn/i6X8Ll2GMhmGMj4/fu3fPnHV+++23xcXFH3/88ZRP6cLRRoOOMDBPnpSZkzdv3pyfn5+fn19ZWVlZWfn3339l4MK1a9eMVuTSbKHjFWQkaTQa1ffSMQ2aV6RW0Wg0HK6S2UYCxHneA4UAAQCd6RA8Was4n8/LsoP7+/vdeounT5+mUin7Y7Tt4upZPcZhMyIej8diMZ140jY/QuoE2ncQMzMzk5OTAwMDIyMjjUZjYGBgYmJieHhYR4nKxJNmsxkIBPR9ZbiDzD4VOldCTk8HPHZcyMumPaHOSZ/CBgECADqT0QbVanVzc3N1dXVtbU22TTKvjnBM6+vrn9wIQ9surp7VYxw2I65evTozM6MhQw/WG9Y5DpI5QqGQLGY1OjoqYyD8fr9e9WXhrGg0qiFGJ1C0naHHxDh8TKtNe8J8zHnoU9ggQABAZzIUoFQqffjw4fXr18vLy6stp3ka2nb5nDlsRty9e/fu3bt9JuZ6gPmn+Ya8vqylbX1fwzCOP2e1zflvTzhBgADQa2Svy1gslkqlDtsse2Nj4/nz5z6fz7pTkdIdF1dXVzc2NvL5fKlUOudfCk9TIpFIJpNTU1N6j/7CrQ+pdDq9ubmZTqfHx8cnJibGx8fblppo+/ourA0LXZTJPOtBmhHWfofOLvFYGIesgHmizn97wgkCBIBeMzU1FYvFbt269ezZs+Yhm2VLgMhkMrp4sPUYvbBtb2/ncrm9vT1ZFPnkP8HFkEgkFhYWFhYW9B79hVsfUn/++ecff/xRKpWuXbv29ddf37lzR4Na24XffIG3FhXM1QhtRsTj8WAwaH16rVarVCoyeMV5aDi5PHH+2xNOECAA9JpkMqmD6Q4r/q+vr6fT6d9//z3eYvOCupQTFQgzqfR8//33eo/+wq0PqaGhof39/Xfv3l2/fv3bb7/97rvvdGtsa0poG4fYMVtYmxGGJR/IN363e1jAHgECQK9ZX19/9epVsVi0ma0g6xwbhrG/v+/xeDrWFfTipAsw1Ot12RvT+l3Z+nTJJbFYzMk568qP5j2p227bPN2mZWBD5gJ0jES6n4hNn0LbQKOjo2NjY6Ojo+FweG5u7tGjR3Nzc+FwuOOWToFAYHp6+t69e9PT04FAYGdnx0kFwvhva8N6v31doTdaBucNAQJAr0mlUi9fvnz16pXNbAVZHKnRaOzv7x8cHHScmal7I+lVrV6v+3y+SCTSNsK/4zJBMzMzMinAyTm/efPm9evXsk+0eecn3QDCfs9om5aBjWKL9SHdT8SmT5FKpZ4/f55Op7/66qtbt27Jb2Z2djYcDieTyUgk0nGQoN/vl+gwMTEh20g6GQNhTQY2N6zP6o2WwXlDgADQa9bW1p4+ffrkyRObY7QCcVh6MAzDPNnP3GsPBoN6j/60Pv3LL7+USQFOzjkSiZTL5Y2NDfPG03LDcLCMlU3LwIZsAN2xTuBp7Sdi06dIpVLpdPrFixe5XM7v91++fFkCxOzsrL6+9ZWDweD09PT09LTNMbgQCBAAeo3Nvt7mqYCqbYEBzQS6U2LbLou6VrH9JI5EIjE2NubwnCcmJubn52XlYyk8WHegtnn6wsLCJ5flNm9Zqff4fL6BgQHDklGGh4e/+OKLubm58fHxvr4+82Ve+xT667p582bbzl74HBAgAPQam329ZftE8xbMEgj0hvkAvT/YYt6yWbKFrEAg1+A2cpjDc56cnIzH43Nzc+ahD20bT9s8XTYGs5810Gw2pbAht4UECEkP5gwxPDw8PT29u7s7Njbm9XrNzQjtU+iQBRkA4fCTomcQIAD0Gpt9vSUfhMNh8xpEQjdUDLVohtCdk/QYLUXYzAKV7oDDxYImJydlJeZu/RKspJgh+2OZA4TX69U/6sFSgTg4OBgfH/d6veYKRFufAp8tAgSAnqW9DP2uLAWDoIl5LWTJBFqB0D6FbqAgVQcpP0j7IxgMdhwA4ZYsTWi+R0/p+C8u6vV6uVwulUpab7De0IN9Pl8sFpuamorH4x3rKwABAkDP0l6GDnfQrkRbJjCPitChkTrDQu80b7Rofuj4p1qr1YrFonmmgFQ1uhggDg4OKpWKxBTNCtYbwuv1Dg0N6a5R3ToH9BICBICepb0Ma0rQ9oSOney4nMCpkYUQ2ooQ0iLp1luYA8Qn+Xy+oaGhoaGhbr07eg8BAkDv87Q2gLZOozg4OKhWqzK08LAloY7mmIsXWfPE2Z4P0IYAAaD3mQOEDITUHkSlUimVSsVi0WY9oqM55uJF1qbG2Z4P0IYAAaD3mQOEjKPUh+r1eqlU2t3dPcPT66hjUwM4PwgQAHpfo9GQL9+yFkK5XNaHKOwDR0OAAND7dDsJGUhonnhJYR84GgIEgN4nK0MbhlGpVM76XIAe0WEHOQAAAHsECAAA4BoBAgAAuEaAAAAArhEgAACAawQIAADgGgECAAC4RoAAAACuESAAAIBrBAgAAOAaAQIAALhGgAAAAK4RIAAAgGsECAAA4BoBAgAAuEaAAAAArhEgAACAawQIAADgGgECAAC4RoAAAACuESAAAIBrBAgAAOAaAQIAALhGgAAAAK4RIAAAgGsECAAA4BoBAgAAuEaAAAAArhEgAACAawQIAADgGgECAAC4RoAAAACuESAAAIBrBAgAAOAaAQIAALhGgAAAAK4RIAAAgGsECAAA4BoBAgAAuEaAAAAArhEgAACAawQIAADgGgECAAC4RoAAAACuESAAAIBrBAgAAOAaAQIAALhGgAAAAK75QqHQWZ8DAAC4GDQ2/B9sGm6Tl19angAAAABJRU5ErkJggg==;" parent="1" vertex="1">
          <mxGeometry x="-660" y="840" width="580.03" height="655" as="geometry" />
        </mxCell>
        <mxCell id="lWAWGfqHZXzT48uGb23J-5" value="at block: Distractor 1 &amp;amp; 2" style="text;html=1;strokeColor=none;fillColor=none;align=left;verticalAlign=middle;whiteSpace=wrap;rounded=0;shadow=0;sketch=0;" parent="1" vertex="1">
          <mxGeometry x="-531" y="743" width="210" height="20" as="geometry" />
        </mxCell>
        <mxCell id="lWAWGfqHZXzT48uGb23J-15" value="Start point" style="shape=umlActor;verticalLabelPosition=bottom;verticalAlign=top;html=1;outlineConnect=0;fillColor=none;rotation=0;" parent="1" vertex="1">
          <mxGeometry x="-200" y="1310" width="20" height="40" as="geometry" />
        </mxCell>
        <mxCell id="lWAWGfqHZXzT48uGb23J-19" value="" style="endArrow=none;html=1;exitX=0.5;exitY=0;exitDx=0;exitDy=0;exitPerimeter=0;entryX=0.81;entryY=0.626;entryDx=0;entryDy=0;entryPerimeter=0;strokeWidth=7;strokeColor=#FF8000;" parent="1" source="lWAWGfqHZXzT48uGb23J-15" target="lWAWGfqHZXzT48uGb23J-13" edge="1">
          <mxGeometry width="50" height="50" relative="1" as="geometry">
            <mxPoint x="-210" y="1300" as="sourcePoint" />
            <mxPoint x="-160" y="1250" as="targetPoint" />
            <Array as="points">
              <mxPoint x="-190" y="1280" />
            </Array>
          </mxGeometry>
        </mxCell>
        <mxCell id="lWAWGfqHZXzT48uGb23J-20" value="" style="verticalLabelPosition=bottom;verticalAlign=top;html=1;shape=mxgraph.basic.4_point_star_2;dx=0.8;rounded=1;shadow=0;glass=0;sketch=0;strokeColor=#000000;fillColor=#000000;opacity=80;" parent="1" vertex="1">
          <mxGeometry x="-195.28999999999996" y="1240" width="10.58" height="10" as="geometry" />
        </mxCell>
        <mxCell id="lWAWGfqHZXzT48uGb23J-22" value="" style="rounded=1;whiteSpace=wrap;html=1;shadow=0;glass=0;sketch=0;strokeColor=#000000;fillColor=#000000;opacity=80;" parent="1" vertex="1">
          <mxGeometry x="-538.01" y="870" width="411" height="370" as="geometry" />
        </mxCell>
        <mxCell id="lWAWGfqHZXzT48uGb23J-24" value="" style="endArrow=classic;html=1;dashed=1;strokeColor=#FFFFFF;exitX=0.5;exitY=0;exitDx=0;exitDy=0;exitPerimeter=0;" parent="1" source="lWAWGfqHZXzT48uGb23J-20" target="lWAWGfqHZXzT48uGb23J-22" edge="1">
          <mxGeometry width="50" height="50" relative="1" as="geometry">
            <mxPoint x="-210" y="1230" as="sourcePoint" />
            <mxPoint x="-160" y="1180" as="targetPoint" />
          </mxGeometry>
        </mxCell>
        <mxCell id="lWAWGfqHZXzT48uGb23J-16" value="&lt;font color=&quot;#ffffff&quot;&gt;Finish Point&lt;/font&gt;" style="shape=umlActor;verticalLabelPosition=bottom;verticalAlign=top;html=1;outlineConnect=0;sketch=0;gradientColor=none;opacity=90;shadow=0;fillColor=none;strokeColor=#FFFFFF;" parent="1" vertex="1">
          <mxGeometry x="-471" y="931" width="17" height="30" as="geometry" />
        </mxCell>
        <mxCell id="lWAWGfqHZXzT48uGb23J-25" value="" style="endArrow=classic;html=1;strokeColor=#FF8000;entryX=1;entryY=0.3333333333333333;entryDx=0;entryDy=0;entryPerimeter=0;strokeWidth=7;" parent="1" target="lWAWGfqHZXzT48uGb23J-16" edge="1">
          <mxGeometry width="50" height="50" relative="1" as="geometry">
            <mxPoint x="-190" y="1240" as="sourcePoint" />
            <mxPoint x="-140" y="1190" as="targetPoint" />
            <Array as="points">
              <mxPoint x="-190" y="940" />
            </Array>
          </mxGeometry>
        </mxCell>
        <mxCell id="lWAWGfqHZXzT48uGb23J-27" value="Lights closed" style="text;html=1;strokeColor=none;fillColor=none;align=center;verticalAlign=middle;whiteSpace=wrap;rounded=0;shadow=0;glass=0;sketch=0;opacity=80;" parent="1" vertex="1">
          <mxGeometry x="-650" y="880" width="80" height="20" as="geometry" />
        </mxCell>
        <mxCell id="lWAWGfqHZXzT48uGb23J-28" value="" style="curved=1;endArrow=classic;html=1;dashed=1;exitX=0.5;exitY=1;exitDx=0;exitDy=0;entryX=0;entryY=0.5;entryDx=0;entryDy=0;" parent="1" source="lWAWGfqHZXzT48uGb23J-27" target="lWAWGfqHZXzT48uGb23J-22" edge="1">
          <mxGeometry width="50" height="50" relative="1" as="geometry">
            <mxPoint x="-630" y="1070" as="sourcePoint" />
            <mxPoint x="-580" y="1020" as="targetPoint" />
            <Array as="points">
              <mxPoint x="-610" y="980" />
            </Array>
          </mxGeometry>
        </mxCell>
        <mxCell id="lWAWGfqHZXzT48uGb23J-29" value="" style="verticalLabelPosition=bottom;verticalAlign=top;html=1;shape=mxgraph.basic.4_point_star_2;dx=0.8;rounded=1;shadow=0;glass=0;sketch=0;fillColor=#FFFF66;" parent="1" vertex="1">
          <mxGeometry x="-339" y="1070" width="29" height="30" as="geometry" />
        </mxCell>
        <mxCell id="lWAWGfqHZXzT48uGb23J-30" value="&lt;font color=&quot;#ffffff&quot;&gt;Distractor 01&lt;/font&gt;" style="text;html=1;strokeColor=none;fillColor=none;align=center;verticalAlign=middle;whiteSpace=wrap;rounded=0;shadow=0;glass=0;sketch=0;" parent="1" vertex="1">
          <mxGeometry x="-361" y="1023" width="73" height="20" as="geometry" />
        </mxCell>
        <mxCell id="lWAWGfqHZXzT48uGb23J-31" value="" style="endArrow=classic;html=1;dashed=1;exitX=1;exitY=0.5;exitDx=0;exitDy=0;exitPerimeter=0;strokeColor=#FFFFFF;entryX=0;entryY=0.5;entryDx=0;entryDy=0;entryPerimeter=0;" parent="1" source="lWAWGfqHZXzT48uGb23J-29" target="lWAWGfqHZXzT48uGb23J-32" edge="1">
          <mxGeometry width="50" height="50" relative="1" as="geometry">
            <mxPoint x="-310" y="1090" as="sourcePoint" />
            <mxPoint x="-260" y="1040" as="targetPoint" />
            <Array as="points">
              <mxPoint x="-170" y="1085" />
              <mxPoint x="-170" y="979" />
            </Array>
          </mxGeometry>
        </mxCell>
        <mxCell id="lWAWGfqHZXzT48uGb23J-32" value="" style="verticalLabelPosition=bottom;verticalAlign=top;html=1;shape=mxgraph.basic.4_point_star_2;dx=0.8;rounded=1;shadow=0;glass=0;sketch=0;strokeColor=none;fillColor=none;" parent="1" vertex="1">
          <mxGeometry x="-140.5" y="970" width="20" height="17" as="geometry" />
        </mxCell>
        <mxCell id="lWAWGfqHZXzT48uGb23J-33" value="" style="verticalLabelPosition=bottom;verticalAlign=top;html=1;shape=mxgraph.basic.4_point_star_2;dx=0.8;rounded=1;shadow=0;glass=0;sketch=0;fillColor=#FFFF66;" parent="1" vertex="1">
          <mxGeometry x="-243.47" y="983" width="29" height="30" as="geometry" />
        </mxCell>
        <mxCell id="lWAWGfqHZXzT48uGb23J-34" value="&lt;font color=&quot;#ffffff&quot;&gt;Distractor 02&lt;/font&gt;" style="text;html=1;strokeColor=none;fillColor=none;align=center;verticalAlign=middle;whiteSpace=wrap;rounded=0;shadow=0;glass=0;sketch=0;" parent="1" vertex="1">
          <mxGeometry x="-326.62" y="988" width="73" height="20" as="geometry" />
        </mxCell>
        <mxCell id="lWAWGfqHZXzT48uGb23J-35" value="" style="endArrow=classic;html=1;dashed=1;strokeColor=#FFFFFF;exitX=0.5;exitY=0;exitDx=0;exitDy=0;exitPerimeter=0;entryX=0.5;entryY=0;entryDx=0;entryDy=0;entryPerimeter=0;" parent="1" source="lWAWGfqHZXzT48uGb23J-33" target="lWAWGfqHZXzT48uGb23J-36" edge="1">
          <mxGeometry width="50" height="50" relative="1" as="geometry">
            <mxPoint x="-230" y="980" as="sourcePoint" />
            <mxPoint x="-180" y="930" as="targetPoint" />
            <Array as="points">
              <mxPoint x="-229" y="960" />
              <mxPoint x="-370" y="960" />
              <mxPoint x="-370" y="920" />
              <mxPoint x="-410" y="920" />
            </Array>
          </mxGeometry>
        </mxCell>
        <mxCell id="lWAWGfqHZXzT48uGb23J-36" value="" style="verticalLabelPosition=bottom;verticalAlign=top;html=1;shape=mxgraph.basic.4_point_star_2;dx=0.8;rounded=1;shadow=0;glass=0;sketch=0;strokeColor=none;fillColor=none;" parent="1" vertex="1">
          <mxGeometry x="-445" y="1013" width="20" height="17" as="geometry" />
        </mxCell>
        <mxCell id="lWAWGfqHZXzT48uGb23J-37" value="" style="rounded=0;whiteSpace=wrap;html=1;gradientColor=none;fillColor=#66FFB3;strokeColor=#66FFB3;sketch=1;rotation=0;opacity=70;" parent="1" vertex="1">
          <mxGeometry x="-240" y="1200" width="94.48" height="71" as="geometry" />
        </mxCell>
        <mxCell id="lWAWGfqHZXzT48uGb23J-38" value="Normal Luminous area" style="text;html=1;strokeColor=none;fillColor=none;align=center;verticalAlign=middle;whiteSpace=wrap;rounded=0;sketch=1;opacity=50;" parent="1" vertex="1">
          <mxGeometry x="-145.52" y="1300" width="59" height="50" as="geometry" />
        </mxCell>
        <mxCell id="lWAWGfqHZXzT48uGb23J-39" value="" style="curved=1;endArrow=classic;html=1;exitX=0.5;exitY=0;exitDx=0;exitDy=0;entryX=1;entryY=0.75;entryDx=0;entryDy=0;" parent="1" source="lWAWGfqHZXzT48uGb23J-38" target="lWAWGfqHZXzT48uGb23J-37" edge="1">
          <mxGeometry width="50" height="50" relative="1" as="geometry">
            <mxPoint x="-150" y="1021" as="sourcePoint" />
            <mxPoint x="-100" y="971" as="targetPoint" />
            <Array as="points">
              <mxPoint x="-110" y="1250" />
            </Array>
          </mxGeometry>
        </mxCell>
        <mxCell id="lWAWGfqHZXzT48uGb23J-43" value="" style="rounded=0;whiteSpace=wrap;html=1;gradientColor=none;sketch=1;opacity=50;rotation=0;fillColor=#6666FF;strokeColor=#6666FF;" parent="1" vertex="1">
          <mxGeometry x="-236.03" y="920" width="86.03" height="270.14" as="geometry" />
        </mxCell>
        <mxCell id="lWAWGfqHZXzT48uGb23J-44" value="&lt;font color=&quot;#ffffff&quot;&gt;Pre-dark area&lt;/font&gt;" style="text;html=1;strokeColor=none;fillColor=none;align=center;verticalAlign=middle;whiteSpace=wrap;rounded=0;sketch=1;opacity=50;" parent="1" vertex="1">
          <mxGeometry x="-240" y="880" width="93.96" height="20" as="geometry" />
        </mxCell>
        <mxCell id="lWAWGfqHZXzT48uGb23J-45" value="" style="curved=1;endArrow=classic;html=1;entryX=0.5;entryY=0;entryDx=0;entryDy=0;strokeColor=#FFFFFF;" parent="1" source="lWAWGfqHZXzT48uGb23J-44" target="lWAWGfqHZXzT48uGb23J-43" edge="1">
          <mxGeometry width="50" height="50" relative="1" as="geometry">
            <mxPoint x="-130.57999999999998" y="1085.8600000000001" as="sourcePoint" />
            <mxPoint x="-80.58" y="1035.8600000000001" as="targetPoint" />
            <Array as="points" />
          </mxGeometry>
        </mxCell>
        <mxCell id="lWAWGfqHZXzT48uGb23J-52" value="" style="rounded=0;whiteSpace=wrap;html=1;shadow=0;sketch=1;gradientColor=none;opacity=80;fillColor=#FF66B3;strokeColor=#FF66B3;" parent="1" vertex="1">
          <mxGeometry x="-510" y="910" width="270" height="60" as="geometry" />
        </mxCell>
        <mxCell id="lWAWGfqHZXzT48uGb23J-53" value="" style="curved=1;endArrow=classic;html=1;exitX=1;exitY=0.5;exitDx=0;exitDy=0;entryX=0.5;entryY=0;entryDx=0;entryDy=0;strokeColor=#FFFFFF;" parent="1" source="lWAWGfqHZXzT48uGb23J-54" target="lWAWGfqHZXzT48uGb23J-52" edge="1">
          <mxGeometry width="50" height="50" relative="1" as="geometry">
            <mxPoint x="-183.66131578947375" y="794" as="sourcePoint" />
            <mxPoint x="-237.60310047830694" y="864.2615952206139" as="targetPoint" />
            <Array as="points" />
          </mxGeometry>
        </mxCell>
        <mxCell id="lWAWGfqHZXzT48uGb23J-54" value="&lt;div&gt;Darkness area&lt;/div&gt;&lt;div&gt;&lt;br&gt;&lt;/div&gt;" style="text;html=1;strokeColor=none;fillColor=none;align=center;verticalAlign=middle;whiteSpace=wrap;rounded=0;sketch=1;opacity=50;" parent="1" vertex="1">
          <mxGeometry x="-498" y="850" width="85" height="20" as="geometry" />
        </mxCell>
        <mxCell id="QKQoIMVIS4UHcm_92JV0-2" value="&lt;font color=&quot;#ffffff&quot; style=&quot;font-size: 18px&quot;&gt;Camera&lt;/font&gt;" style="rounded=1;whiteSpace=wrap;html=1;fillColor=#000000;" parent="1" vertex="1">
          <mxGeometry x="980" y="1112" width="120" height="60" as="geometry" />
        </mxCell>
        <mxCell id="QKQoIMVIS4UHcm_92JV0-3" value="" style="endArrow=none;html=1;exitX=0;exitY=0;exitDx=0;exitDy=0;dashed=1;" parent="1" source="QKQoIMVIS4UHcm_92JV0-2" edge="1">
          <mxGeometry width="50" height="50" relative="1" as="geometry">
            <mxPoint x="1000" y="1002" as="sourcePoint" />
            <mxPoint x="910" y="1019.0000000000001" as="targetPoint" />
          </mxGeometry>
        </mxCell>
        <mxCell id="QKQoIMVIS4UHcm_92JV0-4" value="" style="endArrow=none;html=1;exitX=1;exitY=0;exitDx=0;exitDy=0;dashed=1;" parent="1" source="QKQoIMVIS4UHcm_92JV0-2" edge="1">
          <mxGeometry width="50" height="50" relative="1" as="geometry">
            <mxPoint x="990" y="1122" as="sourcePoint" />
            <mxPoint x="1180" y="1019.0000000000001" as="targetPoint" />
          </mxGeometry>
        </mxCell>
        <mxCell id="QKQoIMVIS4UHcm_92JV0-5" value="View" style="text;html=1;strokeColor=none;fillColor=none;align=center;verticalAlign=middle;whiteSpace=wrap;rounded=0;" parent="1" vertex="1">
          <mxGeometry x="1020" y="1072" width="40" height="20" as="geometry" />
        </mxCell>
        <mxCell id="QKQoIMVIS4UHcm_92JV0-6" value="Distractor 01" style="shape=umlActor;verticalLabelPosition=bottom;verticalAlign=top;html=1;outlineConnect=0;rounded=1;fillColor=#000000;" parent="1" vertex="1">
          <mxGeometry x="850" y="873" width="30" height="60" as="geometry" />
        </mxCell>
        <mxCell id="QKQoIMVIS4UHcm_92JV0-7" value="Distractor 02" style="shape=umlActor;verticalLabelPosition=bottom;verticalAlign=top;html=1;outlineConnect=0;rounded=1;fillColor=#000000;" parent="1" vertex="1">
          <mxGeometry x="1200" y="873" width="30" height="60" as="geometry" />
        </mxCell>
        <mxCell id="QKQoIMVIS4UHcm_92JV0-8" value="" style="endArrow=classic;startArrow=classic;html=1;" parent="1" edge="1">
          <mxGeometry width="50" height="50" relative="1" as="geometry">
            <mxPoint x="860" y="955" as="sourcePoint" />
            <mxPoint x="1215" y="955" as="targetPoint" />
            <Array as="points">
              <mxPoint x="860" y="985" />
              <mxPoint x="1215" y="985" />
            </Array>
          </mxGeometry>
        </mxCell>
        <mxCell id="QKQoIMVIS4UHcm_92JV0-9" value="Continue switch position with this trajectory synchronously" style="edgeLabel;html=1;align=center;verticalAlign=middle;resizable=0;points=[];" parent="QKQoIMVIS4UHcm_92JV0-8" vertex="1" connectable="0">
          <mxGeometry x="0.0252" y="-1" relative="1" as="geometry">
            <mxPoint as="offset" />
          </mxGeometry>
        </mxCell>
      </root>
    </mxGraphModel>
  </diagram>
</mxfile>
